<?xml version="1.0" encoding="UTF-8"?>
<svg xmlns="http://www.w3.org/2000/svg" version="1.1" viewBox="0 0 933.7 971.5">
   <defs>
      <style>
         .cls-1 {
            
         }

         .cls-2 {
            
            isolation: isolate;
            opacity: 0.2;
         }
         g{
            fill: #004990;
            opacity: 0.5;
         }
         g:hover {
            filter: drop-shadow(0 0 10px #00fff2) brightness(2.5);
            
         }
         .solvedPuzzle {
            fill:#ffdc2d;
            opacity: 1;
         }
      </style>
   </defs>
   <!-- Generator: Adobe Illustrator 28.7.1, SVG Export Plug-In . SVG Version: 1.2.0 Build 142)  -->

   <g>
      <path class="cls-2"
         d="M331.3,449.6c-6.8,65.3,77.5,85.4,106.3,29,19.4-38-5.1-90.6-51.5-86.1-29.1,2.9-51.8,28.6-54.8,57.1h0Z" />
      <path class="cls-2"
         d="M350.4,458.4c4-47,64.8-78,97.6-37.3,30.9,38.3-1.3,102.4-51.6,96.9-29.3-3.2-48.5-31.1-46.1-59.6h.1Z" />
      <path class="cls-2"
         d="M331.2,450.8c4.2-48.3,66.9-81.3,100.9-39,31.9,39.6-1.5,106.4-53.5,100.7-30.4-3.3-50-32.3-47.4-61.7h0Z" />
      <path class="cls-2"
         d="M350.6,457.2c-6.4,62.8,75.1,82.6,102.9,28.1,18.8-36.8-5.4-87.3-50-83.1-28.1,2.6-50.1,27.3-52.9,54.9h0Z" />
      <path class="cls-2"
         d="M334.9,443.7c9.3-46.7,75.4-67.6,97.9-18.6,17.9,39.1-17,90.8-61.4,80.3-27.4-6.5-41.6-35.3-36.5-61.8h0Z" />
      <path class="cls-1"
         d="M334.1,449c-6.3,59.7,70.8,77.9,97,26.4,17.7-34.7-4.6-82.7-46.9-78.6-26.7,2.6-47.4,26.1-50.1,52.2h0Z" />
   </g>
   <g>
      <polygon class="cls-2" points="269.4 100.7 277.6 122.5 257.2 103.7 248.9 81.2 269.4 100.7 269.4 100.7" />
      <path class="cls-2"
         d="M322.6,100.3l6.7-2.7-18.8-20.1c-18.3,7.6-36,16.4-53.3,26.2l20.4,18.9c14.6-8.2,29.6-15.7,45-22.3h0Z" />
      <polygon class="cls-2" points="329.3 97.5 334.3 121.6 315.5 102.3 310.5 77.5 329.3 97.5 329.3 97.5" />
      <path class="cls-2"
         d="M291.7,141.4l-5.8,3.2-20.2-18.2c16.1-9.1,32.7-17.1,49.9-24.2l18.8,19.3c-14.6,5.8-28.8,12.4-42.6,19.8h0Z" />
      <polygon class="cls-2" points="285.9 144.6 320.2 235.9 300.7 220.5 265.7 126.4 285.9 144.6 285.9 144.6" />
      <path class="cls-2"
         d="M424.1,206.2l4.8-.2-16.1-17c-39.3,1.7-77.6,12.8-112.1,31.5l19.5,15.4c32.1-17.2,67.5-27.5,103.9-29.6h0Z" />
      <polygon class="cls-2" points="428.9 206 423.5 261.2 407.1 246.1 412.8 189 428.9 206 428.9 206" />
      <path class="cls-2"
         d="M368.8,270.3l-3.5,1.2-18.3-14.4c19.3-6.7,39.6-10.5,60.1-11l16.4,15c-18.6.4-37,3.5-54.7,9.2h0Z" />
      <polygon class="cls-2" points="365.3 271.5 360 245.8 341.7 230.6 347.1 257.1 365.3 271.5 365.3 271.5" />
      <path class="cls-2"
         d="M303.7,275l-3.4,2.5-20.2-13.8c18.9-13.9,39.6-25.1,61.6-33.1l18.4,15.2c-20,7.1-38.9,17-56.3,29.2h-.1Z" />
      <polygon class="cls-2" points="300.3 277.5 230 154.4 208.2 136.9 280 263.6 300.3 277.5 300.3 277.5" />
      <path class="cls-2"
         d="M154.4,229.7l-4.4,5.6-24.2-14.4c24.1-31.4,51.5-59.4,82.4-84l21.8,17.5c-28.2,22.2-53.3,47.3-75.7,75.3h0Z" />
      <path class="cls-2" d="M150,235.4c-13-11.5-25.6-19.9-40.5-28.9,13,11.5,25.5,19.9,40.5,28.9h0Z" />
      <path class="cls-2"
         d="M134.1,221.3c37.3-48.6,82.6-89.3,135.3-120.6l-20.5-19.5c-54.3,32.7-100.9,75-139.3,125.3l24.5,14.8h0Z" />
      <polygon class="cls-2" points="403.7 242.5 408.8 190.9 412.8 189 407.1 246.1 403.7 242.5 403.7 242.5" />
      <polygon class="cls-2" points="254.5 106.1 246.1 83.6 248.9 81.2 257.2 103.7 254.5 106.1 254.5 106.1" />
      <polygon class="cls-2" points="307.4 79.7 310.5 77.5 315.5 102.3 311.4 99.6 307.4 79.7 307.4 79.7" />
      <polygon class="cls-2" points="208.2 136.9 207.9 132.2 279.8 259 280 263.6 208.2 136.9 208.2 136.9" />
      <path class="cls-2"
         d="M138.7,215.3l-4.6,6,16,14.1c23.4-30.3,50-57.3,80-81l70.2,123.1c18.3-13.4,38.4-24.1,59.7-31.7l5.3,25.7c18.8-6.4,38.4-9.9,58.2-10.3l5.3-55.1c-38,1.4-75.2,11.9-108.7,29.8l-34.3-91.2c15.6-8.8,31.8-16.4,48.4-23.1l-5-24c-17.8,7.3-35,15.6-51.7,25l-8.2-21.8c-50.5,30-94.2,68.6-130.7,114.6h.1Z" />
      <path class="cls-2"
         d="M352.8,251.2c16.5-5.1,33.6-8.1,50.9-8.7l3.5,3.7c-20.5.5-40.7,4.3-60.1,11l1-4.4c1.6-.5,3.2-1,4.8-1.5h0Z" />
      <polygon class="cls-2" points="348 252.7 347.1 257.1 341.7 230.6 342.6 226.1 348 252.7 348 252.7" />
      <path class="cls-2"
         d="M322.1,211.3c-8.3,3.6-16.2,7.7-24.2,11.9l2.7-2.7c34.5-18.8,72.9-29.7,112.1-31.5l-4,1.9c-29.8,1.5-59.2,8.6-86.6,20.4h0Z" />
      <path class="cls-2" d="M280,263.6l-.2-4.6c19.3-14.1,40.5-24.6,62.8-32.9l-.9,4.5c-22,7.9-42.8,19.2-61.6,33.1h0Z" />
      <path class="cls-2"
         d="M269.6,119.6c13.6-7.4,27.4-14.2,41.8-20l4.1,2.6c-17.2,7-33.7,15.1-49.9,24.2l-4.4-2.1,8.4-4.7h0Z" />
      <path class="cls-2"
         d="M263.2,101.1l-8.7,4.9c13.7-13.5,38.4-21.3,56-28.6-6,5-15.1,7.3-22.1,10.7-8.5,4.1-16.9,8.4-25.2,13h0Z" />
      <polygon class="cls-2" points="297.9 223.2 261.3 124.4 265.7 126.4 300.7 220.5 297.9 223.2 297.9 223.2" />
      <path class="cls-2"
         d="M136.6,201.1c21.5-25.4,45.2-48.2,71.3-68.9l.4,4.7c-30.9,24.6-58.4,52.6-82.4,84l-1.5-4.4c4-5.2,8.1-10.3,12.2-15.4h0Z" />
      <polygon class="cls-2" points="124.3 216.5 125.8 220.9 109.5 206.5 111.2 204.9 124.3 216.5 124.3 216.5" />
      <path class="cls-1"
         d="M111.2,204.9c36.4-48.4,82.7-90.5,134.9-121.3l8.3,22.5c17.1-9.8,34.6-18.9,52.9-26.4l4,20c-17.3,7-33.9,15.5-50.1,24.7l36.7,98.8c34.5-18.4,71.6-30.3,110.9-32.3l-5.1,51.6c-18.9.7-37.7,4.2-55.6,10.3l-5.4-26.6c-22.4,8.3-43.5,18.9-62.8,32.9l-71.9-126.8c-31.1,24.8-59.5,52.6-83.5,84.3l-13.1-11.6h-.2Z" />
      <path class="cls-1"
         d="M111.2,204.9l-1.7,1.6c38.4-50.3,85-92.6,139.3-125.3-10.9,10.7-27.4,17.9-39.8,27-12.4,9.1-24.3,18.9-35.8,29.2-22.7,20.5-43.7,43.1-62.1,67.5h0Z" />
   </g>
   <g>
      <path class="cls-2"
         d="M535.9,227.6l4.4,2.1-12.4-16.8c-23.9-11.7-49.5-19.3-75.9-22.4l14.8,17.2c23.9,3,47.3,9.7,69.1,20h0Z" />
      <polygon class="cls-2" points="540.3 229.7 601.7 125.8 591.7 104.8 527.9 212.9 540.3 229.7 540.3 229.7" />
      <path class="cls-2"
         d="M555.4,109.1l-6.8-1.8-11.9-21.3c18.8,4.9,37.1,11.1,55,18.8l10,21c-15.1-6.6-30.5-12.1-46.3-16.7h0Z" />
      <polygon class="cls-2" points="548.6 107.3 570.7 53.3 559.7 29.9 536.7 86 548.6 107.3 548.6 107.3" />
      <path class="cls-2"
         d="M787.8,191.1l5.5,7-2.6-19.5c-45.8-58.2-105-104.4-174.3-131.4-18.5-7.2-37.5-12.8-56.7-17.4l11,23.4c65.6,16.1,126,47.6,175.8,93.5,14.9,13.7,28.5,28.7,41.3,44.3h0Z" />
      <polygon class="cls-2" points="793.3 198.2 765.2 217.1 761.4 198.5 790.7 178.7 793.3 198.2 793.3 198.2" />
      <path class="cls-2"
         d="M727.5,174l-5.8-5.6-5.5-20.2c16.4,15.6,31.4,32.3,45.3,50.3l3.8,18.6c-11.7-15.2-24.2-29.5-37.7-43.1h0Z" />
      <polygon class="cls-2" points="721.7 168.4 697.7 190.4 691.2 171.2 716.2 148.2 721.7 168.4 721.7 168.4" />
      <path class="cls-2"
         d="M657.9,157.7l-6-4.1-8.2-20.3c16.8,11.5,32.6,24.1,47.5,37.9l6.5,19.2c-12.6-11.8-25.8-22.6-39.8-32.7h0Z" />
      <polygon class="cls-2" points="651.9 153.6 535.4 297.6 522.8 283.4 643.8 133.2 651.9 153.6 651.9 153.6" />
      <polygon class="cls-2" points="453.1 263 466.8 207.6 452 190.5 437.7 247.9 453.1 263 453.1 263" />
      <path class="cls-2"
         d="M456.8,263.6l-3.7-.6-15.4-15.1c37.6,5.4,72.4,21.3,97.7,49.8-23.1-17.6-50-29.2-78.6-34.1h0Z" />
      <polygon class="cls-2" points="762.2 193 785.7 177 790.7 178.7 761.4 198.5 762.2 193 762.2 193" />
      <polygon class="cls-2" points="453.1 192.6 440.2 244.5 437.7 247.9 452 190.5 453.1 192.6 453.1 192.6" />
      <path class="cls-2"
         d="M523.4,210.8l4.5,2.2.2,2.8c-23.9-11.5-48.7-19.7-75-23.2l-1.1-2.1c24.7,3,48.8,9.8,71.4,20.3h0Z" />
      <polygon class="cls-2" points="591.7 104.8 595.3 101.9 528.1 215.7 527.9 212.9 591.7 104.8 591.7 104.8" />
      <path class="cls-2"
         d="M453.1,263c29.9,4.4,58.2,16.3,82.3,34.6l116.5-144.1c16.2,11.1,31.4,23.4,45.8,36.8l24-22c15.8,15.1,30.2,31.3,43.5,48.7l28.1-18.9c-44.1-56.4-101-101.2-167.8-127.7-17.8-7.1-36.2-12.6-54.8-17.2l-22.1,54c18.2,4.9,35.8,11,53.1,18.5l-61.4,103.9c-23.1-11.4-47.9-18.9-73.5-22.1l-13.7,55.3h0v.2Z" />
      <path class="cls-2" d="M716.1,142.6c16.5,15.7,32.3,32.2,46,50.4l-.8,5.5c-13.8-18-28.8-34.7-45.3-50.3v-5.6h0Z" />
      <polygon class="cls-2" points="716.1 142.6 716.2 148.2 691.2 171.2 691.1 165.7 716.1 142.6 716.1 142.6" />
      <path class="cls-2"
         d="M651.6,133.7c13.8,9.8,27.2,20.3,39.5,32v5.5c-14.8-13.9-30.5-26.5-47.4-37.9l-.9-5.4,8.7,5.9h.1Z" />
      <path class="cls-2"
         d="M667.8,74.2c-33.7-18.9-69.5-33.7-107.2-42.3l-.9-2c70.5,16.7,135.3,50.9,187.9,100.9,15.6,14.9,29.8,31,43.1,47.9l-5-1.7c-32.4-41.7-72.5-76.1-117.9-102.8h0Z" />
      <polygon class="cls-2" points="642.9 127.8 643.8 133.2 522.8 283.4 521.7 278.4 642.9 127.8 642.9 127.8" />
      <path class="cls-2"
         d="M551.3,85.8c15,4.6,29.6,10,44,16.2l-3.6,2.9c-17.9-7.6-36.1-13.9-55-18.8l3.1-3.4c3.8,1,7.7,2.1,11.5,3.1h0Z" />
      <polygon class="cls-2" points="560.6 31.9 539.8 82.6 536.7 86 559.7 29.9 560.6 31.9 560.6 31.9" />
      <path class="cls-1"
         d="M441.3,244.7l-1.2-.2,12.9-51.9c26.3,3.4,51.2,11.7,75,23.2l67.2-113.8c-18.1-7.7-36.4-14.5-55.5-19.3l20.8-50.8c68.8,15.8,132.8,51,183.8,99.6,14.9,14.1,28.7,29.4,41.3,45.6l-23.5,16c-13.8-18.2-29.5-34.7-46-50.4l-25,23.1c-14.9-14.1-31.3-26.4-48.2-37.9l-121.2,150.6c-23.6-17.5-51.3-29-80.3-33.7h0Z" />
      <path class="cls-2"
         d="M437.7,247.9l2.5-3.4c29.3,4.4,57.7,16.2,81.5,33.9l1.1,5c-24.8-18.9-54.2-31.1-85.1-35.5h0Z" />
   </g>
   <g>
      <path class="cls-2"
         d="M153.5,526.5l.7,5.1-25.3-4.5c-2.1-14.3-3.2-28.8-3.3-43.3l25.2,6c.1,12.3,1,24.5,2.6,36.7h.1Z" />
      <path class="cls-2" d="M154.3,531.7l47.1-13.6-23.9-5.1-48.5,14.1c8.4,1.5,16.8,3,25.3,4.5h0Z" />
      <path class="cls-2"
         d="M220,578.7l1.8,3.8-23.6-2.8c-10.2-21.1-17.1-43.6-20.8-66.7l23.9,5.1c3.5,20.9,9.6,41.3,18.6,60.6h.1Z" />
      <path class="cls-2"
         d="M178.6,611.6l-42.4,28.5-26.2-.6c29.4-19.9,58.8-39.8,88.3-59.8l23.6,2.8c-14.4,9.7-28.9,19.4-43.3,29.1h0Z" />
      <path class="cls-2"
         d="M156.9,678.6l3.4,5.3-25.7,1c-9.3-14.5-17.4-29.7-24.6-45.4l26.2.6c6.1,13.2,13,26.1,20.7,38.5h0Z" />
      <path class="cls-2" d="M160.3,683.8l-19.3,17.7-26.3,1.7,19.9-18.4c8.6-.3,17.1-.7,25.7-1h0Z" />
      <path class="cls-2"
         d="M118.1,660.2l-2.8-6.1h-26.8c7.7,16.9,16.4,33.2,26.2,49.1l26.3-1.7c-8.4-13.4-16-27.1-22.8-41.3h0Z" />
      <path class="cls-2" d="M115.3,654.1l-20.6,13.9-27.4.4,21.3-14.4h26.8-.1Z" />
      <path class="cls-2"
         d="M77.3,620.7l-2-6.9-27.7-1.5c5.4,19.2,11.9,37.8,19.6,56.1l27.4-.4c-6.6-15.5-12.4-31.2-17.3-47.3h0Z" />
      <path class="cls-2" d="M75.3,613.8l43.5-20.4-26.4-2.3-44.8,21.1c9.2.5,18.4,1,27.7,1.5h0Z" />
      <path class="cls-2" d="M109.4,551l-.9-6.2-26.5-4c2.4,17,5.9,33.8,10.5,50.3l26.4,2.3c-4-14-7.1-28.1-9.5-42.4h0Z" />
      <path class="cls-2" d="M108.4,544.8l-66.4,19.1-28.3-3.2,68.1-19.8c8.8,1.3,17.7,2.6,26.5,4h0Z" />
      <path class="cls-2" d="M38.4,503.2l112.5-13.4-25.2-6-115.3,14c9.4,1.8,18.7,3.5,28.1,5.3h0Z" />
      <path class="cls-2" d="M38.4,510.9v-7.7l-28.1-5.3c0,21,1.1,41.9,3.4,62.8l28.3,3.2c-2.1-17.6-3.3-35.3-3.6-53h0Z" />
      <path class="cls-2" d="M125.7,483.9l-5.8,3.9-108.9,13.1-.7-3c38.4-4.7,76.9-9.4,115.3-14h.1Z" />
      <path class="cls-2"
         d="M128.3,521.8l.7,5.3-5.2,4.6c-2-14.6-3.5-29.2-3.8-44l5.8-3.9c.1,12.7.9,25.4,2.6,37.9h-.1Z" />
      <polygon class="cls-2" points="177.5 513 172.4 517.7 123.7 531.8 129 527.2 177.5 513 177.5 513" />
      <path class="cls-2"
         d="M194.6,571.8c1.2,2.7,2.4,5.3,3.7,7.9l-7.2-1.7c-8.9-19.2-15.1-39.5-18.7-60.4l5.1-4.6c3.2,20.2,8.9,40,17.1,58.8h0Z" />
      <path class="cls-2"
         d="M127.8,673.9c2.2,3.7,4.5,7.4,6.8,11l-7.4-.6c-9.3-14.8-17.1-30.4-24.4-46.3l7.2,1.5c5.4,11.8,11.2,23.2,17.8,34.4h0Z" />
      <polygon class="cls-2" points="127.2 684.2 134.6 684.9 114.7 703.2 113.1 697.3 127.2 684.2 127.2 684.2" />
      <polygon class="cls-2" points="92.4 591.1 94.4 593.2 49.5 614.4 47.7 612.3 92.4 591.1 92.4 591.1" />
      <path class="cls-2"
         d="M38.4,503.2c0,20.3,1.2,40.5,3.6,60.7l66.4-19.1c2.4,16.4,5.9,32.6,10.4,48.6l-43.5,20.4c5.3,18.5,11.7,36.5,19.3,54.2l20.6-13.9c7.5,16.4,16.1,32.2,25.7,47.4l19.3-17.7c-9.1-14-17.1-28.6-24.1-43.8,28.6-19.2,57.1-38.4,85.6-57.6-10-20.3-16.8-42-20.5-64.4l-47.1,13.6c-2.1-13.8-3.2-27.8-3.4-41.8l-112.5,13.4h.2Z" />
      <path class="cls-2"
         d="M149.7,606.1c13.8-9.4,27.6-18.7,41.4-28.1l7.2,1.7c-29.4,19.9-58.8,39.8-88.3,59.8l-7.2-1.5,46.9-31.8h0Z" />
      <path class="cls-2" d="M92.1,658.2c6.3,13.4,13.2,26.5,21,39.1l1.6,6c-9.6-15.6-25.2-36.4-27.1-55l4.5,9.9h0Z" />
      <polygon class="cls-2" points="87.6 648.3 88.5 654 67.3 668.4 66.3 662.7 87.6 648.3 87.6 648.3" />
      <path class="cls-1"
         d="M49.5,614.4l44.9-21.2c-5.2-19.1-9.2-38.1-12.1-57.7l-68.3,20c-2.2-18.1-3.2-36.4-3-54.6l108.9-13.1c.3,14.8,1.8,29.3,3.8,44l48.6-14.1c3.6,20.8,9.9,41.2,18.7,60.4-29.4,20-58.9,39.9-88.3,59.9,7.3,15.9,15.1,31.5,24.4,46.3l-14.1,13c-9.8-15.7-17.9-32.2-25.5-49l-21.2,14.4c-6.7-15.6-12.4-31.9-16.9-48.3h.1Z" />
      <path class="cls-2" d="M83.8,545.9c2.6,16,6.3,31.7,10.6,47.4l-2-2.1c-4.5-16.2-12.9-38.7-10.1-55.6l1.5,10.3h0Z" />
      <polygon class="cls-2" points="82.3 535.6 81.9 540.9 13.8 560.7 14 555.6 82.3 535.6 82.3 535.6" />
      <path class="cls-2"
         d="M49.5,614.4c2.6,9.4,5.6,18.7,8.9,27.9,3,8.4,8.2,17.2,8.9,26.1-7.7-18.3-14.2-37-19.6-56.1l1.8,2.1h0Z" />
      <path class="cls-2" d="M11,501c-.2,19.5,4.8,40.5,2.8,59.7-2.4-20.9-3.5-41.7-3.4-62.8l.7,3h0Z" />
   </g>
   <g>
      <path class="cls-2" d="M252.5,365.8l41.4,25.6c-22.2-10.5-42.4-23.2-63.3-36.2l21.9,10.6h0Z" />
      <path class="cls-2"
         d="M319.1,359l2-1.9-19.9-11.1c-10.9,10.5-20.4,22.5-28,35.6l20.8,9.8c6.9-11.8,15.4-22.8,25.1-32.4h0Z" />
      <polygon class="cls-2" points="321 357.1 337.1 376.9 317.7 366.4 301.2 345.9 321 357.1 321 357.1" />
      <path class="cls-2"
         d="M430.3,346.4l2.1.3-16.3-12c-35.8-6.1-72.2,6.9-98.4,31.6l19.4,10.5c24.9-23.4,59.1-35.7,93.1-30.5h0Z" />
      <polygon class="cls-2" points="432.4 346.7 425.4 374.8 408.8 363.9 416 334.8 432.4 346.7 432.4 346.7" />
      <path class="cls-2"
         d="M327.6,439.5l-.9,3.3-20-8.1c11.6-44.6,54.9-79.2,102-70.8l16.6,10.9c-44.2-8-85.4,23-97.8,64.7h.1Z" />
      <path class="cls-2" d="M326.7,442.8c-40.2-8.8-81.2-15.2-119.8-29.8,40.1,8.7,81.8,14.3,119.8,29.8h0Z" />
      <path class="cls-2"
         d="M229.6,421.6c5.1-19.6,12.8-38.3,22.9-55.8l-21.9-10.6c-10.5,18.1-18.5,37.6-23.8,57.9l22.8,8.5h0Z" />
      <polygon class="cls-2" points="273.1 381.6 272.6 384.5 230 358 230.6 355.2 273.1 381.6 273.1 381.6" />
      <path class="cls-2"
         d="M230.6,417.9l-1,3.7,97.1,21.2c11.2-43.1,53.2-76.2,98.7-68l7-28.1c-34.6-6-69.9,6.3-95.2,30.2l-16.1-19.9c-10.6,10.1-19.7,21.7-27.1,34.3l-41.4-25.6c-9.5,16.4-16.8,33.9-21.9,52.1h-.1Z" />
      <path class="cls-2" d="M412,336.3c1.4-.5,2.7-1,4.1-1.6l-7.3,29.2-2.8-3.7,6-23.9h0Z" />
      <path class="cls-2"
         d="M321.4,364.7l-5.2,4.8,1.5-3.1c26.2-24.7,62.5-37.8,98.4-31.6-1.4.5-2.7,1-4.1,1.6-32.8-4.9-65.9,6.6-90.6,28.3h0Z" />
      <path class="cls-2" d="M304,431.2l2.8,3.5-99.9-21.7,1.6-2.5c31.9,6.9,63.7,13.8,95.5,20.6h0Z" />
      <path class="cls-2"
         d="M309.2,416.8c16.9-36.8,55.6-62.6,96.8-56.5l2.8,3.7c-47.2-8.4-90.4,26.2-102,70.8l-2.8-3.5c1.4-4.9,3.2-9.7,5.2-14.4h0Z" />
      <polygon class="cls-2" points="316.2 369.5 299.7 349 301.2 345.9 317.7 366.4 316.2 369.5 316.2 369.5" />
      <path class="cls-2"
         d="M284.8,365.9c-4.5,5.9-8.5,12.2-12.2,18.6l.5-2.9c7.6-13.1,17.1-25.1,28-35.6l-1.5,3c-5.3,5.3-10.3,11-14.8,16.9h0Z" />
      <path class="cls-1"
         d="M208.8,409.2c5-17.8,12.1-35.1,21.2-51.2l42.6,26.5c7.6-12.9,16.4-25,27.1-35.5l16.5,20.5c26.2-24.1,59.7-38.5,95.8-33.1l-6,23.9c-46.5-7-89.8,27-102,70.9l-95.5-20.6.4-1.3h0Z" />
      <path class="cls-2"
         d="M208.4,410.5l-1.6,2.5c5.3-20.2,13.3-39.7,23.8-57.9l-.6,2.8c-9.4,16.5-16.6,34.2-21.6,52.5h0Z" />
   </g>
   <g>
      <path class="cls-2"
         d="M476.9,366.5l1.7,1.4c-14.5-11.1-28.1-22.5-45.6-28.7l15.8,11.9c10.1,3.6,19.6,8.9,28.1,15.5h0Z" />
      <polygon class="cls-2" points="478.6 367.9 497.5 344.6 483.4 332.3 463.8 356.5 478.6 367.9 478.6 367.9" />
      <path class="cls-2"
         d="M462.5,324.8l-2.5-.9-15.3-12.9c20.7,7.1,36.6,19.4,52.9,33.6-10.5-8.4-22.4-15.1-35-19.8h-.1Z" />
      <polygon class="cls-2" points="459.9 323.9 471 296.8 456.1 282.8 444.6 311 459.9 323.9 459.9 323.9" />
      <path class="cls-2" d="M533.5,336.7l2.3,2.4c-24-23.9-46.7-45.4-79.6-56.3l14.9,14c23.7,8,45.2,21.8,62.4,39.9h0Z" />
      <polygon class="cls-2" points="535.7 339.1 581 297.5 570 283.1 523 326.4 535.7 339.1 535.7 339.1" />
      <path class="cls-2" d="M619.3,353.9l2,4.3c-18.8-24.1-29.9-52.3-51.3-75.1,17.7,23.2,36.7,44.1,49.4,70.8h-.1Z" />
      <path class="cls-2"
         d="M564.8,384.6l-81.9,38.3-14.8-9.3c47.8-22.6,95.7-45.2,143.5-67.8l9.6,12.3c-18.8,8.8-37.7,17.6-56.5,26.4h.1Z" />
      <polygon class="cls-2" points="437.7 378.2 448.8 351.1 433 339.2 421.5 367.4 437.7 378.2 437.7 378.2" />
      <path class="cls-2"
         d="M440.7,379.4c-6.9-2.2-13.2-8-19.2-12,21.5,8,38.1,25.1,46.7,46.3l14.8,9.3c-8-19.4-22.8-35.3-42.2-43.5h0Z" />
      <polygon class="cls-2" points="568.9 286.6 521.8 330 523 326.4 570 283.1 568.9 286.6 568.9 286.6" />
      <path class="cls-2" d="M447.5,308.2c-1,.9-2,1.8-2.9,2.8l11.5-28.2.6,2.9-9.2,22.5h0Z" />
      <polygon class="cls-2" points="483.4 332.3 486.8 330.8 463.2 360.1 463.8 356.5 483.4 332.3 483.4 332.3" />
      <path class="cls-2"
         d="M520.6,323.9l2.3,2.5-1.2,3.6c-18.1-19.8-39.7-35.3-65.1-44.3l-.6-2.9c24.6,8.2,46.6,22.4,64.5,41.1h.1Z" />
      <path class="cls-2"
         d="M609.7,341.5l2,4.4-5-2.2c-9.5-20.8-22.3-40.2-37.8-57l1.1-3.5c16.2,17.2,29.6,37,39.7,58.4h0Z" />
      <path class="cls-2"
         d="M437.7,378.2c20.8,7.8,36.9,24.3,45.2,44.7,46.1-21.6,92.2-43.2,138.4-64.8-10-22.3-23.5-42.8-40.3-60.6l-45.3,41.6c-17.6-19.3-39.9-34-64.7-42.3l-11.1,27.1c13.6,4.7,26.3,11.7,37.5,20.7l-18.8,23.3c-8.9-7.2-19-13-29.8-16.8l-11.1,27.1h0Z" />
      <path class="cls-2"
         d="M468.9,408.9c45.9-21.8,91.9-43.5,137.8-65.2l5,2.2c-47.8,22.6-95.7,45.2-143.5,67.8l.7-4.8h0Z" />
      <path class="cls-2"
         d="M447.5,308.3h0c14.4,5.2,27.3,13.1,39.3,22.5l-3.4,1.5c-11.6-9.2-24.7-16.5-38.8-21.3l2.9-2.7h0Z" />
      <path class="cls-2"
         d="M438.9,344.6c-1.8-.8-3.5-1.5-5.3-2.2-.2-1-.3-2.1-.5-3.1,11.2,4,21.6,9.9,30.8,17.3l-.7,3.6c-7.5-6.1-15.5-11.5-24.3-15.5h0Z" />
      <path class="cls-1"
         d="M433.5,342.3c10.9,4.2,20.6,10.4,29.6,17.8l23.6-29.3c-12-9.5-24.9-17.3-39.3-22.6l9.2-22.5c25.4,9,47,24.5,65.1,44.3l47.1-43.4c15.5,16.8,28.3,36.3,37.8,57-45.9,21.7-91.9,43.5-137.8,65.2-8.7-19.8-24.5-35.8-44.6-44.1l9.2-22.5h.1Z" />
      <path class="cls-2" d="M433,339.2c.2,1,.3,2.1.5,3.1l-9.2,22.5-2.8,2.5,11.5-28.2h0Z" />
      <path class="cls-2"
         d="M424.3,364.8c20,8.2,35.9,24.3,44.6,44.1l-.7,4.8c-8.6-21.1-25.2-38.3-46.7-46.3l2.8-2.5h0Z" />
   </g>
   <g>
      <polygon class="cls-2" points="515 483.9 634.7 510.1 625.4 503.9 501.2 476.9 515 483.9 515 483.9" />
      <path class="cls-2" d="M640.1,475.9l.4-5-9-7.8c-1,13.7-3.1,27.4-6.2,40.8l9.3,6.2c2.6-11.3,4.4-22.7,5.5-34.2h0Z" />
      <polygon class="cls-2" points="640.5 470.9 773.1 477.1 769.5 469.2 631.5 463.1 640.5 470.9 640.5 470.9" />
      <path class="cls-2"
         d="M766.2,530.9l-1.6,7.5-4-5.2c4.5-21.2,7.5-42.4,8.9-64l3.6,7.9c-1.2,18.1-3.5,36-6.9,53.8h0Z" />
      <polygon class="cls-2" points="764.6 538.4 731.1 531.1 725.7 525.6 760.6 533.2 764.6 538.4 764.6 538.4" />
      <path class="cls-2"
         d="M692.3,629.7l-3.6,6-7.2-.9c20.4-34.2,35.1-70.5,44.3-109.2l5.4,5.5c-8.2,34.8-21.1,67.6-38.8,98.6h-.1Z" />
      <path class="cls-2" d="M688.7,635.8l-28.6-17.7-8.4-1.7,29.7,18.4,7.2.9h0Z" />
      <path class="cls-2"
         d="M634.4,654.3l-4,4.8h-9.7c11.4-13.3,21.8-27.6,31-42.7l8.4,1.7c-7.8,12.6-16.4,24.7-25.7,36.2h0Z" />
      <path class="cls-2" d="M630.3,659.1l-24.7-21.8-10.6-.8,25.6,22.7h9.7Z" />
      <path class="cls-2"
         d="M650.3,565.5l2.2-5.3-8.6-4.1c-12,29.2-28.4,56.3-48.8,80.5l10.6.8c18.4-21.6,33.4-45.9,44.6-71.9h0Z" />
      <path class="cls-2" d="M652.5,560.2c-43-17.4-86.6-33.7-128.9-52.7,42.9,17.3,87.1,32.9,128.9,52.7h0Z" />
      <path class="cls-2"
         d="M527.3,532.4l-1.5,2.6-13.5-5c4.3-7.2,8.1-14.8,11.3-22.5l13,5.9c-2.7,6.5-5.8,12.9-9.3,19.1h0Z" />
      <path class="cls-2" d="M525.8,535c-13.2-8.2-25.2-15.6-39.6-21.2,13.2,8.2,25.1,15.8,39.6,21.2h0Z" />
      <path class="cls-2" d="M500.6,519.3c6.5-11,11.4-23,14.4-35.4l-13.8-7c-3.2,12.9-8.2,25.4-15,36.8l14.3,5.5h.1Z" />
      <polygon class="cls-2" points="764.1 472.9 634.9 467 631.5 463.1 769.5 469.2 764.1 472.9 764.1 472.9" />
      <polygon class="cls-2" points="520.3 501.4 649.1 553.3 643.9 556.1 523.6 507.4 520.3 501.4 520.3 501.4" />
      <path class="cls-2" d="M625.4,503.9l2.6,4.8-125-27.3-1.8-4.4c41.4,9,82.8,18,124.2,27h0Z" />
      <path class="cls-2"
         d="M624.9,654.2l-4.2,5-1.4-6.5c11.2-13.4,20.9-27.9,30.2-42.7l2.2,6.4c-8.1,13.2-17,25.8-26.8,37.8h0Z" />
      <polygon class="cls-2" points="595.1 636.6 600.4 636.1 619.3 652.7 620.7 659.2 595.1 636.6 595.1 636.6" />
      <path class="cls-2"
         d="M502.9,515.2l-2.4,4.1,25.3,15.6c4.2-6.9,7.8-14.2,10.8-21.7l115.9,46.9c-11.4,28-27.2,54.1-46.8,77.2l24.7,21.8c11-12.9,20.9-26.6,29.8-41l28.6,17.7c19.5-32.7,33.7-67.6,42.4-104.7l33.5,7.3c4.3-20.3,7.1-40.6,8.5-61.3l-132.5-6.2c-1,13.2-2.9,26.3-5.9,39.2l-119.7-26.1c-2.7,10.9-6.7,21.4-12,31.2h-.2Z" />
      <polygon class="cls-2" points="721.7 519.7 756.5 527.2 760.6 533.2 725.7 525.6 721.7 519.7 721.7 519.7" />
      <path class="cls-2"
         d="M760.1,508.3c1.8-11.7,3.3-23.5,4-35.4l5.4-3.7c-1.4,21.6-4.4,42.8-8.9,64l-4.1-6c1.4-6.3,2.5-12.6,3.5-18.9h0Z" />
      <polygon class="cls-2" points="649.5 610 679.1 628.3 681.4 634.9 651.7 616.4 649.5 610 649.5 610" />
      <path class="cls-2"
         d="M705.8,573.2c6.5-17.5,11.6-35.3,15.9-53.5l4,5.9c-9.1,38.7-23.9,75.1-44.3,109.2l-2.3-6.5c10.5-17.5,19.2-36.1,26.6-55.1h0Z" />
      <path class="cls-2"
         d="M630.1,499.2l-2.1,9.5-2.6-4.8c3.1-13.4,5.2-27.1,6.2-40.8l3.3,3.9c-1,10.8-2.6,21.6-4.8,32.2h0Z" />
      <path class="cls-2"
         d="M605.1,630.3c-1.5,2-3.1,3.9-4.7,5.8l-5.4.5c20.4-24.2,36.8-51.3,48.8-80.5l5.2-2.8c-11.5,27.6-25.6,53.4-44,77h.1Z" />
      <path class="cls-2"
         d="M514.9,513.9c1.9-4.1,3.7-8.3,5.4-12.5l3.3,6c-3.2,7.8-6.9,15.3-11.3,22.5-.8-2.1-1.7-4.2-2.5-6.3,1.8-3.2,3.5-6.5,5.1-9.8h0Z" />
      <path class="cls-2"
         d="M493.4,506.4c-.9,1.8-1.9,3.6-2.8,5.4l-4.4,2c6.8-11.5,11.9-23.9,15-36.8l1.8,4.4c-2.4,8.6-5.6,17-9.6,25h0Z" />
      <path class="cls-1"
         d="M490.6,511.7c5.3-9.6,9.5-19.8,12.4-30.4l125,27.3c3.1-13.8,5.7-27.6,6.9-41.6l129.2,5.9c-1.1,18.2-3.7,36.5-7.6,54.3l-34.9-7.5c-9,38.2-22.3,74.9-42.5,108.6l-29.7-18.3c-9.2,14.8-18.9,29.3-30.2,42.7l-18.8-16.6c20.7-25,36.2-53,48.7-82.8l-128.8-51.9c-3.2,7.6-6.4,15.1-10.5,22.2l-19.2-11.9h0Z" />
      <path class="cls-2" d="M490.6,511.7l19.2,11.9c.8,2.1,1.7,4.2,2.5,6.3l-26.1-16.2,4.4-2h0Z" />
   </g>
   <g>
      <path class="cls-2"
         d="M607.4,280.2c-5.7-5.2-9.4-12.7-13.6-19.1,30.2,31.4,51.6,70.4,62.7,112.5l8,11.4c-10.5-38.9-29.8-75.1-57.1-104.8h0Z" />
      <polygon class="cls-2" points="603.9 276.5 627.1 255.2 617.8 238.9 593.8 261.1 603.9 276.5 603.9 276.5" />
      <path class="cls-2"
         d="M694.1,370.1l1.7,5.9c-13.3-23.6-18.9-50.9-32-75-12.4-22.7-27.9-43.5-46-62,12.6,22.2,31.3,39.8,44.9,61.5s24,45.1,31.4,69.6h0Z" />
      <polygon class="cls-2" points="695.8 375.9 727.6 366.8 722.2 354.5 689.1 364.1 695.8 375.9 695.8 375.9" />
      <path class="cls-2" d="M736.9,413.3l.8,6.9-5-10.2c-2.2-18.8-5.6-37.2-10.5-55.5,8.2,18.8,12,38.5,14.7,58.8h0Z" />
      <path class="cls-2"
         d="M672.1,427.9l-63.3,7.5-10.2-9.2c44.7-5.4,89.3-10.9,134-16.3l5,10.2c-21.9,2.6-43.7,5.2-65.6,7.8h0Z" />
      <path class="cls-2" d="M609.3,465.1l-.3,4.3-10.2-7.8c.9-11.8.8-23.6,0-35.3l10.2,9.2c.8,9.9.9,19.7.4,29.6h-.1Z" />
      <polygon class="cls-2" points="609 469.4 488.8 463.7 474.1 456 598.8 461.6 609 469.4 609 469.4" />
      <polygon class="cls-2" points="487 436 664.5 384.9 656.5 373.6 472.3 427.2 487 436 487 436" />
      <path class="cls-2"
         d="M487.7,439.3l-.7-3.4-14.7-8.8c2,9.5,2.6,19.1,1.8,28.8l14.7,7.7c.7-8.2.3-16.3-1.1-24.4h0Z" />
      <polygon class="cls-2" points="656.5 373.6 659.6 374.8 474.6 428.6 472.3 427.2 656.5 373.6 656.5 373.6" />
      <path class="cls-2" d="M599.1,457.1l-.3,4.5-3.1-3.3c.8-11.6.4-23.2-.5-34.9l3.5,2.9c.8,10.2,1,20.5.4,30.8h0Z" />
      <path class="cls-2"
         d="M487,436c2,9.1,2.5,18.4,1.8,27.7l120.2,5.7c.8-11.3.8-22.6-.2-33.9,43-5.1,85.9-10.2,128.9-15.3-2.1-18.1-5.3-35.8-10.1-53.4l-31.8,9.1c-12.6-45.3-35.8-87.1-68.7-120.7l-23.1,21.2c29.2,30.3,49.6,67.9,60.6,108.5l-177.5,51h0Z" />
      <path class="cls-2"
         d="M728.7,402.7c-2.1-15.3-4.8-30.5-8.9-45.4l2.4-2.8c4.9,18.3,8.4,36.7,10.5,55.5l-3.6-3-.5-4.3h0Z" />
      <polygon class="cls-2" points="722.2 354.5 719.8 357.3 686.7 366.9 689.1 364.1 722.2 354.5 722.2 354.5" />
      <path class="cls-2" d="M595.2,423.4c44.7-5.5,89.3-11,134-16.4l3.6,3c-44.7,5.4-89.3,10.9-134,16.3l-3.5-2.9h0Z" />
      <path class="cls-2"
         d="M669.1,317.9c-13.2-28-30.5-53.9-52-76.1l.8-2.9c34.1,35,58.3,78.1,71.3,125.2l-2.4,2.8c-4.7-16.8-10.3-33.1-17.6-49h0Z" />
      <polygon class="cls-2" points="617.8 238.9 617 241.8 597 260.2 593.8 261.1 617.8 238.9 617.8 238.9" />
      <polygon class="cls-2" points="476.1 453.1 595.7 458.3 598.8 461.6 474.1 456 476.1 453.1 476.1 453.1" />
      <path class="cls-2"
         d="M597,260.2c30.7,32.3,50.8,71.8,62.6,114.6l-3.1-1.2c-11.2-42.1-32.5-81.1-62.7-112.5l3.2-.9Z" />
      <path class="cls-1"
         d="M476.1,440.7c-.3-4.1-.8-8.1-1.6-12.1l185-53.8c-11.8-42.7-31.8-82.3-62.6-114.6l20-18.4c34.1,35,56.5,78.4,69.6,125.1l33.1-9.6c4.5,16.2,7.6,33,9.4,49.7-44.7,5.5-89.3,11-134,16.4.8,11.6,1.2,23.2.5,34.9l-119.6-5.2c.3-4.1.2-8.3,0-12.4h.2Z" />
      <path class="cls-2" d="M474.6,428.6c1.6,8,2.1,16.3,1.5,24.5l-2,3c.8-9.7.2-19.3-1.8-28.8l2.2,1.4h0Z" />
   </g>
   <g>
      <path class="cls-2"
         d="M151.9,760.4l4.8,5.6-26.1,4.1c-13-15.5-24.8-31.6-35.6-48.7l26.9-2.3c9.2,14.4,19.2,28.1,30.1,41.3h-.1Z" />
      <path class="cls-2" d="M156.7,766l51.5-63.7-24.4,1.7-53.2,66.1c8.7-1.4,17.4-2.7,26.1-4.1h0Z" />
      <path class="cls-2"
         d="M183,670.7l-3.2-4.8-25.1.4c8.8,13.3,18.5,25.9,29.1,37.7l24.4-1.7c-9.1-10-17.5-20.5-25.2-31.6h0Z" />
      <path class="cls-2" d="M179.7,666l59.3-54.4-23.2-1.7-61.2,56.5,25.1-.4h0Z" />
      <path class="cls-2"
         d="M257.6,634.5l2.9,3.1-22.6-.7c-8-8.4-15.4-17.5-22.1-27l23.2,1.7c5.7,8.1,11.9,15.7,18.6,23h0Z" />
      <path class="cls-2" d="M260.5,637.6l-17.5,21.7h-23.2c0,0,18.1-22.4,18.1-22.4,7.5.2,15.1.5,22.6.7h0Z" />
      <path class="cls-2"
         d="M299.6,702.8l4.3,2.3-21.5,1.9c-23.4-12.3-44.5-28.4-62.7-47.6h23.2c16.6,17.2,35.6,31.9,56.6,43.4h.1Z" />
      <path class="cls-2"
         d="M281.6,759.7l-11.2,27.4-22.8,5.1c11.6-28.4,23.3-56.8,34.9-85.2l21.5-1.9c-7.5,18.2-14.9,36.4-22.4,54.7h0Z" />
      <path class="cls-2"
         d="M232.8,762.4l-5-3.9-24,3.9c13.8,11.1,28.4,21,43.8,29.8l22.8-5.1c-13.1-7.4-25.6-15.6-37.6-24.7h0Z" />
      <path class="cls-2" d="M227.8,758.5l-43.3,73.3-25.6,6.7,44.9-76.1c8-1.3,16-2.6,24-3.9h0Z" />
      <path class="cls-2" d="M102.8,736.6l19-17.4-26.9,2.3-19.6,18.1c9.2-1,18.3-2,27.5-2.9h0Z" />
      <path class="cls-2"
         d="M107,743.1l-4.1-6.6-27.5,2.9c23.1,37.1,50.8,70.1,83.5,98.9l25.6-6.7c-29.9-26-55.7-55.5-77.5-88.6h0Z" />
      <polygon class="cls-2" points="94.9 721.4 92 727.2 77.6 740.5 75.4 739.5 94.9 721.4 94.9 721.4" />
      <path class="cls-2"
         d="M125.7,764.3l4.9,5.8-2.2,6.2c-13.1-15.6-25.6-31.7-36.4-49.1l3-5.8c9.4,14.9,19.6,29.2,30.7,42.9h0Z" />
      <polygon class="cls-2" points="183.8 704 186.7 704 128.4 776.3 130.6 770.1 183.8 704 183.8 704" />
      <path class="cls-2"
         d="M234.9,633.7l3,3.2-7,.2c-6.4-6.9-12.3-14.1-17.7-21.7l2.6-5.5c5.8,8.4,12.2,16.3,19.1,23.8h0Z" />
      <polygon class="cls-2" points="200.8 756.9 203.8 762.4 158.9 838.4 155.9 833.1 200.8 756.9 200.8 756.9" />
      <path class="cls-2"
         d="M102.8,736.6c22.6,35.7,49.7,67.5,81.6,95.2l43.3-73.3c13.4,10.7,27.6,20.2,42.6,28.6,11.2-27.3,22.4-54.7,33.6-82-22.7-11.8-43.2-27.3-60.9-45.8l17.5-21.7c-7.8-8.1-15-16.8-21.5-26l-59.3,54.4c8.6,12.8,18.1,25,28.5,36.3l-51.5,63.7c-12.7-14.9-24.2-30.4-34.8-46.9l-19,17.4h0Z" />
      <path class="cls-2"
         d="M265.6,733.8l10.1-24.6,6.8-2.2c-11.6,28.4-23.3,56.8-34.9,85.2l-3.7-5.3c7.2-17.7,14.5-35.4,21.7-53h0Z" />
      <polygon class="cls-2" points="212.8 659.7 231 637.1 237.9 636.9 219.8 659.4 212.8 659.7 212.8 659.7" />
      <path class="cls-2"
         d="M229.6,676.4c-5.9-5.3-11.4-11-16.8-16.7l7-.3c18.1,19.2,39.3,35.3,62.7,47.6l-6.8,2.2c-16.6-9-32-20.1-46.1-32.8h0Z" />
      <path class="cls-2"
         d="M208.9,763.3c11.1,8.6,22.8,16.6,35,23.6l3.7,5.3c-15.4-8.8-30-18.7-43.8-29.8l-3-5.5,8,6.4h.1Z" />
      <polygon class="cls-2" points="215.9 609.9 213.3 615.4 157.4 666.9 154.7 666.3 215.9 609.9 215.9 609.9" />
      <path class="cls-2" d="M157.4,666.9c8.8,13.1,18.8,25.2,29.3,37h-2.9c-10.6-11.8-20.4-24.4-29.1-37.7l2.7.6h0Z" />
      <path class="cls-1"
         d="M92,727.2c10.8,17.3,23.3,33.4,36.4,49.1l58.3-72.3c-10.5-11.8-20.5-23.9-29.3-37l55.9-51.6c5.4,7.6,11.4,14.9,17.7,21.7l-18.2,22.6c18.7,19.5,39.1,36.5,62.9,49.5-10.6,25.9-21.2,51.8-31.8,77.7-15.2-8.8-29.3-19.1-43-30l-44.9,76.2c-30.5-26.4-57.2-58.2-78.3-92.6l14.4-13.2h0Z" />
      <path class="cls-2" d="M77.6,740.5c21.1,34.4,47.8,66.2,78.3,92.6l3,5.4c-32.8-28.9-60.5-61.9-83.5-98.9l2.3.9h0Z" />
   </g>
   <g>
      <polygon class="cls-2" points="446.8 534.2 461.5 559.8 445.7 556 430.6 529.3 446.8 534.2 446.8 534.2" />
      <path class="cls-2"
         d="M488,536.7l1.5-1.8-14.8-4.9c-8.3,10.1-18.1,18.9-29.1,26l15.8,3.9c9.9-6.4,18.8-14.2,26.5-23.1h.1Z" />
      <polygon class="cls-2" points="489.5 534.9 557.8 595.2 545.5 592.6 474.8 530 489.5 534.9 489.5 534.9" />
      <path class="cls-2"
         d="M575.6,570.9l2.3-3.7-11.6-3.7c-6.2,10.2-13.2,20-20.9,29.2l12.4,2.5c6.5-7.7,12.4-15.8,17.8-24.3h0Z" />
      <polygon class="cls-2" points="577.9 567.2 604.7 583.8 594.2 580.7 566.3 563.5 577.9 567.2 577.9 567.2" />
      <path class="cls-2"
         d="M526.6,664.2l-4.1,2.5-13.8.4c35-21.4,64.2-51.4,85.5-86.4l10.6,3.1c-19.7,32.3-46.3,60-78.2,80.4h0Z" />
      <path class="cls-2" d="M522.5,666.7l-15.6-27.4-14.4-.7,16.2,28.5,13.8-.4h0Z" />
      <path class="cls-2"
         d="M530.7,622.2l3.2-2.7-13.3-1.5c-8.8,7.6-18.2,14.6-28.1,20.7l14.4.7c8.3-5.2,16.3-10.9,23.8-17.2h0Z" />
      <path class="cls-2" d="M533.9,619.4l-19.5-24.1-14-2.5,20.2,25,13.3,1.5h0Z" />
      <path class="cls-2"
         d="M443.7,633l-3.3.8-16.7-.9c28.5-6.9,54.7-20.8,76.7-40.1l14,2.5c-20.4,17.7-44.5,30.8-70.6,37.6h-.1Z" />
      <path class="cls-2" d="M440.4,633.8l-6.2-29.9-16.9-2.1,6.3,31.1,16.7.9h.1Z" />
      <path class="cls-2"
         d="M453.2,597.8l2.6-1.1-16.1-2.4c-7.2,3.1-14.7,5.6-22.4,7.5l16.9,2.1c6.5-1.6,12.8-3.6,19-6.1h0Z" />
      <path class="cls-2" d="M455.8,596.7l-21-56-16.7-4.6,21.6,58.1,16.1,2.4h0Z" />
      <path class="cls-2" d="M434.8,540.8c4.2-1.9,8.2-4.1,12-6.6l-16.3-4.9c-4,2.6-8.1,4.9-12.5,6.8l16.7,4.6h0Z" />
      <polygon class="cls-2" points="589.5 581.5 566.6 567.3 566.3 563.5 594.2 580.7 589.5 581.5 589.5 581.5" />
      <polygon class="cls-2" points="500 588.6 523.9 618.2 520.6 617.9 500.4 592.9 500 588.6 500 588.6" />
      <path class="cls-2" d="M545.5,592.6l-.4,4.1-70.9-63c.2-1.2.4-2.5.6-3.7l70.7,62.6h0Z" />
      <path class="cls-2"
         d="M437.9,539.3l-3.1,1.5,21,56c-7,3-14.2,5.4-21.6,7.2l6.2,29.9c27.5-6.6,52.7-20,74-38.5l19.5,24.1c-8.5,7.3-17.5,14-27.1,19.9l15.6,27.4c33.6-20.5,61.8-49.3,82.2-82.9l-26.8-16.6c-6,9.8-12.7,19.2-20,28l-68.3-60.3c-8,9.7-17.5,18.1-28,24.9l-14.6-25.6c-2.9,1.9-5.9,3.6-9,5.1h0Z" />
      <path class="cls-2"
         d="M555.4,583.8c-3.3,4.4-6.8,8.7-10.3,12.9l.4-4.1c7.7-9.2,14.7-18.9,20.9-29.2l.3,3.8c-3.5,5.7-7.2,11.1-11.2,16.5h-.1Z" />
      <path class="cls-2"
         d="M510.6,662c31.9-20.5,58.9-48.2,78.9-80.4l4.7-.8c-21.2,35-50.6,65-85.5,86.4l.2-4.1,1.8-1.1h-.1Z" />
      <polygon class="cls-2" points="508.8 663.1 508.6 667.2 492.5 638.6 495.5 639.6 508.8 663.1 508.8 663.1" />
      <path class="cls-2"
         d="M496.9,638.8l-1.3.8-3-1c9.9-6.2,19.3-13.1,28.1-20.7l3.3.3c-8.7,7.4-17.5,14.3-27,20.5h-.1Z" />
      <path class="cls-2"
         d="M454.3,552.5c-3.4,2.6-6.9,4.9-10.5,7.2l1.8-3.7c11-7.1,20.8-15.9,29.1-26-.2,1.2-.4,2.5-.6,3.7-6,6.9-12.6,13.2-19.9,18.7h.1Z" />
      <path class="cls-2"
         d="M425.6,629.2c27.9-7.4,52.8-21.7,74.4-40.6l.4,4.2c-22,19.2-48.2,33.2-76.7,40.1l1.1-3.5.8-.2h0Z" />
      <polygon class="cls-2" points="424.8 629.4 423.7 632.9 417.3 601.8 419.6 603.8 424.8 629.4 424.8 629.4" />
      <polygon class="cls-2" points="428.7 532.9 430.6 529.3 445.7 556 443.8 559.7 428.7 532.9 428.7 532.9" />
      <path class="cls-1"
         d="M421.4,536.9c2.5-1.2,4.9-2.6,7.2-4l15.1,26.8c11.3-7.3,21.5-15.8,30.3-26l70.9,63c7.8-9.4,15.1-19,21.5-29.4l22.9,14.2c-20.2,32.7-48,61.1-80.6,81.5l-13.3-23.5c10-6.4,19.3-13.7,28.3-21.4l-23.9-29.6c-21.8,19-47,33.6-75.2,40.8l-5.2-25.6c7.8-2.1,15.4-4.9,22.8-8.1l-21.8-58.4.9-.4h0Z" />
      <path class="cls-2" d="M419.9,603.8h-.3l-2.2-1.9c7.7-1.9,15.1-4.4,22.4-7.5l2.6,1.5c-7.3,3.1-14.8,5.9-22.5,8h0Z" />
      <path class="cls-2" d="M421.4,536.9l-.9.4-2.5-1.2c4.3-2,8.5-4.2,12.5-6.8l-1.9,3.6c-2.4,1.5-4.8,2.8-7.2,4h0Z" />
      <polygon class="cls-2" points="418.1 536.2 420.6 537.3 442.3 595.8 439.7 594.3 418.1 536.2 418.1 536.2" />
   </g>
   <g>
      <polygon class="cls-2" points="436.7 124.6 439.3 97.8 423.8 76.9 421.1 104.7 436.7 124.6 436.7 124.6" />
      <path class="cls-2"
         d="M392.3,104.3l-6.5,1.4-17.2-20.2c18.3-4.1,36.6-7,55.3-8.7l15.5,20.8c-15.8,1.3-31.5,3.4-47,6.6h0Z" />
      <polygon class="cls-2" points="385.8 105.7 383.1 54.8 365.9 32.9 368.6 85.6 385.8 105.7 385.8 105.7" />
      <path class="cls-2"
         d="M499.6,43.4l7.8.5-13.2-23.2c-43.4-2.1-86.1,2-128.3,12.3l17.1,21.9c38.4-9,77.2-12.8,116.6-11.3h0v-.2Z" />
      <polygon class="cls-2" points="507.4 43.9 487.2 125.3 473.2 105.1 494.3 20.7 507.4 43.9 507.4 43.9" />
      <path class="cls-2"
         d="M531.4,132.8l6.2,1.6-12.3-20.3c-17.1-4.3-34.4-7.3-52-9l14,20.2c14.9,1.5,29.6,3.9,44.1,7.4h0Z" />
      <path class="cls-2" d="M526.5,161.4l-11.1,27.1-13.2-18.2c7.7-18.7,15.3-37.5,23-56.2l12.3,20.3-11.1,27.1h0Z" />
      <path class="cls-2"
         d="M354.5,193.5l-4.9,1.8-18.5-16.9c54.6-20.3,114.9-23.9,171.2-8.1l13.2,18.2c-52.6-15.1-109.3-12.7-160.9,5.1h-.1Z" />
      <polygon class="cls-2" points="349.6 195.3 339.3 145.9 320.6 127.3 331 178.4 349.6 195.3 349.6 195.3" />
      <path class="cls-2"
         d="M339.3,145.9c31.3-11.8,64-19,97.4-21.3l-15.6-19.9c-34.5,2.6-68.2,10.2-100.5,22.7l18.7,18.5h0Z" />
      <polygon class="cls-2" points="367.6 33.5 370 81.1 368.6 85.6 365.9 32.9 367.6 33.5 367.6 33.5" />
      <polygon class="cls-2" points="423.8 76.9 425.9 72.7 422.6 106 421.1 104.7 423.8 76.9 423.8 76.9" />
      <polygon class="cls-2" points="473.2 105.1 469 106.4 490.1 21.9 494.3 20.7 473.2 105.1 473.2 105.1" />
      <path class="cls-2"
         d="M345.1,143.7l-5.8,2.2,10.2,49.4c53-19.4,111.5-22.4,165.8-6.8,7.4-18,14.8-36.1,22.1-54.1-16.5-4.3-33.3-7.3-50.3-9l20.2-81.5c-42-2.4-83.4,1.3-124.4,10.9l2.7,51c17.7-3.9,35.5-6.5,53.6-8l-2.6,26.8c-31.3,2.1-62,8.6-91.6,19.1h0Z" />
      <path class="cls-2" d="M517,114c-15.9-3.7-31.8-6-48-7.6l4.3-1.3c17.6,1.6,34.9,4.6,52,9l-4.6.8-3.7-.9h0Z" />
      <path class="cls-2"
         d="M499.9,165.7c6.9-16.9,13.8-33.8,20.8-50.7l4.6-.8c-7.7,18.7-15.3,37.5-23,56.2l-2.3-4.6h-.1Z" />
      <path class="cls-2"
         d="M403.9,26.3c-12.2,2-24.3,4.2-36.3,7.2l-1.7-.6c42.2-10.2,85-14.4,128.3-12.3l-4.2,1.2c-28.8-1.7-57.6.3-86.1,4.4h0Z" />
      <path class="cls-2" d="M368.6,85.6l1.4-4.4c18.4-4.3,37.1-6.8,55.9-8.4l-2,4.2c-18.6,1.7-37,4.5-55.3,8.7h0Z" />
      <path class="cls-2"
         d="M331.9,173.9c53.2-19.7,113.1-23.2,167.9-8.2l2.3,4.6c-56.2-15.8-116.6-12.2-171.2,8.1l.9-4.5h.1Z" />
      <path class="cls-1"
         d="M325.9,126.4c31.3-11.4,63.5-17.8,96.6-20.5l3.3-33.3c-18.8,1.7-37.5,4.1-55.9,8.4l-2.4-47.6c39.7-10,81.5-14,122.4-11.7l-21.1,84.5c17.4,1.7,34.7,4.2,51.7,8.5-6.9,16.9-13.8,33.8-20.8,50.7-54.8-15.1-114.7-11.4-167.9,8.2l-9.4-46.1,3.4-1.3h0v.2Z" />
      <path class="cls-2"
         d="M325.9,126.4l-3.4,1.3-1.9-.4c32.3-12.4,66-20.1,100.5-22.7l1.5,1.3c-33.2,2.6-65.3,9.1-96.6,20.5h-.1Z" />
      <path class="cls-2" d="M322.5,127.7l9.4,46.1-.9,4.5-10.4-51,1.9.4h0Z" />
   </g>
   <g>
      <polygon class="cls-2" points="534.5 806 499.8 713.6 485 716 520.9 812.4 534.5 806 534.5 806" />
      <path class="cls-2"
         d="M569.8,672.5l4.3-3.5-11.9.5c-23,19.6-49.1,35.4-77.2,46.6,31.5-5.1,60.2-23.6,84.8-43.5h0Z" />
      <path class="cls-2" d="M574.1,668.9l20.7,25.5-11.1,1.6-21.4-26.6,11.9-.5h-.1Z" />
      <path class="cls-2"
         d="M559.8,719.8l-5.2,3.2-12.7,2.8c14.7-8.8,28.6-18.8,41.8-29.7l11.1-1.6c-11.1,9.2-22.7,17.7-34.9,25.4h0Z" />
      <path class="cls-2" d="M554.6,722.9l50.2,88-10.9,6.8-52.1-91.9,12.7-2.8h0Z" />
      <path class="cls-2"
         d="M553.9,835c-7.5,2.8-13.8,6.5-20.7,10.6,25-9.3,48.9-20.5,71.6-34.6-16.5,9.1-33.4,17.1-50.9,24h0Z" />
      <polygon class="cls-2" points="546.4 837.7 570.8 902.7 558.5 913.5 533.2 845.6 546.4 837.7 546.4 837.7" />
      <path class="cls-2"
         d="M437.6,924.7h-8.9c0,0-17.9,11.1-17.9,11.1,50.5.9,99.6-6.7,147.5-22.3l12.4-10.8c-43.3,14.2-87.6,21.7-133.2,22h0Z" />
      <polygon class="cls-2" points="428.7 924.6 423.6 826.2 405.8 833.2 410.9 935.8 428.7 924.6 428.7 924.6" />
      <path class="cls-2" d="M423.6,826.2c38.1-.6,75-7.4,110.9-20.2-40.1,18.8-84.6,26.6-128.7,27.2l17.8-7h0Z" />
      <polygon class="cls-2" points="562.2 669.5 583.6 696 576.3 695.4 560.7 675.9 562.2 669.5 562.2 669.5" />
      <polygon class="cls-2" points="593.9 817.7 586.7 816.2 534.8 724.2 541.9 725.8 593.9 817.7 593.9 817.7" />
      <polygon class="cls-2" points="558.5 913.5 551.4 911.1 526.3 843.2 533.2 845.6 558.5 913.5 558.5 913.5" />
      <polygon class="cls-2" points="405.8 833.2 408.6 838.3 413.3 932.1 410.9 935.8 405.8 833.2 405.8 833.2" />
      <path class="cls-2"
         d="M430.6,826.1h-7l5.2,98.5c48.6.7,95.9-6.7,142.1-21.8l-24.4-65c20.2-7.5,39.5-16.4,58.4-26.8l-50.2-88c14.1-8.5,27.5-18,40.2-28.5l-20.7-25.5c-22.2,18.8-47.2,34-74.3,44.7l34.7,92.4c-33.7,12-68.2,18.7-103.9,20.1h-.1Z" />
      <path class="cls-2"
         d="M526.3,843.2c20.7-7.7,41.1-16.1,60.4-27l7.3,1.5c-19.6,10.8-39.7,20.1-60.8,27.9l-6.9-2.3h0Z" />
      <path class="cls-2"
         d="M543.9,718.7c11.3-7.1,22.2-14.8,32.5-23.3l7.3.7c-13.2,11-27.1,20.9-41.8,29.7l-7.1-1.5,9.1-5.5h0Z" />
      <path class="cls-2"
         d="M511.2,708.7c-7.2,3.7-14.5,7.1-22,10.2l-4.3-2.9c28.1-11.2,54.2-27,77.2-46.6l-1.5,6.5c-15.3,12.6-31.9,23.6-49.4,32.8h0Z" />
      <path class="cls-2"
         d="M499.7,824.5c-29.7,8.4-60.2,13.6-91.1,13.8l-2.8-5.1c39.5-.5,77.8-7.6,115.1-20.8l4.6,3.5c-8.5,3-17.1,5.9-25.8,8.6h0Z" />
      <polygon class="cls-2" points="489.3 718.9 525.5 816 520.9 812.4 485 716 489.3 718.9 489.3 718.9" />
      <path class="cls-2" d="M413.3,932.1c46.5,1.2,94.1-6.1,138.1-21l7,2.4c-48,15.7-97,23.3-147.5,22.3l2.4-3.7h0Z" />
      <path class="cls-1"
         d="M408.6,838.3c40.2-.2,79.1-9,116.8-22.4l-36.2-97.1c25.8-10.6,49.9-25.2,71.4-43l15.7,19.5c-13.1,10.8-27.1,20-41.5,28.8l51.9,91.9c-19.3,10.9-39.7,19.3-60.4,27l25.2,67.9c-44,14.8-91.7,22.3-138.1,21l-4.7-93.8h0v.2Z" />
   </g>
   <g>
      <path class="cls-2"
         d="M298.4,457l.2-2.2-20.9-7.6c-1.3,12.1-1,24.3,1.1,36.3l20.9,6.3c-2-10.8-2.4-21.9-1.5-32.8h.2Z" />
      <polygon class="cls-2" points="298.6 454.8 324.4 456 304.3 448.4 277.8 447.2 298.6 454.8 298.6 454.8" />
      <path class="cls-2"
         d="M332.6,504.1l1.5,2.9-19.9-5.7c-8.6-16.1-11.8-34.8-9.9-52.9l20.1,7.6c-1.7,16.5.9,33.3,8.2,48.1h0Z" />
      <polygon class="cls-2" points="334.1 507 311.1 522.4 290.5 517.3 314.2 501.3 334.1 507 334.1 507" />
      <path class="cls-2"
         d="M330.1,548.1l1.5,1.5-20.1-4.1c-8.5-8.2-15.6-17.8-21.1-28.2l20.7,5.1c5,9.5,11.4,18.2,19,25.7h0Z" />
      <path class="cls-2"
         d="M295.9,593.8l-17.7,21.9-22-1.5c18.5-22.9,36.9-45.8,55.4-68.7l20.1,4.1c-11.9,14.7-23.8,29.5-35.8,44.2h0Z" />
      <path class="cls-2" d="M225.5,511.2l74.4-21.4-20.9-6.3-76.7,22.3c7.7,1.8,15.5,3.6,23.2,5.4Z" />
      <path class="cls-2"
         d="M226.1,514.9l-.7-3.7-23.2-5.4c6.7,40.6,25.1,78.8,53.9,108.4l22,1.5c-27.1-27.6-44.9-63-52-100.9h0Z" />
      <polygon class="cls-2" points="278.9 483.5 281.4 485.8 204.3 508.2 202.3 505.8 278.9 483.5 278.9 483.5" />
      <path class="cls-2"
         d="M225.5,511.2c6.7,39.3,24.7,76.1,52.7,104.6,17.8-22,35.7-44.1,53.5-66.1-8.2-7.9-15.2-17.1-20.5-27.2l22.9-15.4c-8.4-15.5-11.5-33.5-9.7-51l-25.7-1.2c-1.3,11.6-.9,23.5,1.2,35l-74.4,21.4h0Z" />
      <path class="cls-2" d="M307.5,499.6c2.2.6,4.4,1.2,6.6,1.7l-23.7,16-6.7-1.6,23.8-16.1h0Z" />
      <path class="cls-2"
         d="M299.5,540c-6.3-7.5-11.3-15.7-15.8-24.3l6.7,1.6c5.5,10.4,12.6,20,21.1,28.2h-6.9c-1.8-1.8-3.5-3.7-5.1-5.7h0v.2Z" />
      <path class="cls-2"
         d="M298.5,454.9c0-1.1.1-2.2.2-3.3,1.9-1.1,3.8-2.1,5.7-3.2-1.9,18.1,1.2,36.8,9.9,52.9-2.2-.6-4.4-1.1-6.6-1.7-6.7-13.9-9.6-29.3-9.1-44.7h-.1Z" />
      <path class="cls-2" d="M301.7,449.8c-1,.6-2.1,1.2-3.1,1.7l-19.4-.9c-.5-1.1-1-2.3-1.4-3.5l26.5,1.2-2.6,1.4h0Z" />
      <path class="cls-2"
         d="M278.6,449.2l.6,1.5c-.9,11.9,0,23.4,2.2,35.1l-2.4-2.3c-2.1-12-2.5-24.2-1.1-36.3l.8,2h-.1Z" />
      <path class="cls-2"
         d="M254.2,608.3c16.8-20.9,33.6-41.8,50.5-62.7h6.9c-18.5,22.9-36.9,45.8-55.4,68.7-.7-2-1.3-4-2-5.9h0Z" />
      <path class="cls-1"
         d="M222.1,562c-8.4-17.1-14.3-35.2-17.8-53.9l77-22.4c-2.1-11.7-3.1-23.3-2.2-35.1l19.4.9c-1.1,16.4,1.7,33.1,8.9,48l-23.8,16.1c5.7,10.9,12.3,21.1,20.9,29.9-16.8,20.9-33.6,41.8-50.5,62.7-12.9-13.8-23.6-29.4-32.1-46.3h.2Z" />
      <path class="cls-2"
         d="M204.3,508.2c6.9,37.3,23.9,72.4,49.8,100.1.7,2,1.3,4,2,5.9-28.8-29.5-47.2-67.8-53.9-108.4l2.1,2.3h0Z" />
   </g>
   <g>
      <path class="cls-2" d="M54.8,383.4l84.4,18.4c-36.3-12.9-73.9-19.5-111.6-27.7l27.1,9.3h.1Z" />
      <path class="cls-2"
         d="M151.7,363.6l2.1-5.3-24.6-10.5c-6,14.7-11,29.7-15.1,45l25.1,8.9c3.4-13,7.6-25.7,12.5-38.2h0Z" />
      <path class="cls-2" d="M153.8,358.4l63.4,25.7c-29.2-12.5-58.6-24.2-88-36.1l24.6,10.5h0Z" />
      <path class="cls-2"
         d="M200.6,445.8l-.5,4.3-23.7-7.5c2.9-23.5,8.9-46.5,17.9-68.5l23,9.8c-8.1,19.8-13.7,40.6-16.6,61.8h0Z" />
      <polygon class="cls-2" points="200.1 450.1 273.4 453.6 251.8 446 176.4 442.7 200.1 450.1 200.1 450.1" />
      <path class="cls-2" d="M272.4,472.7v2.7l-21.6-6.7c-.2-7.5.1-15.1,1-22.6l21.6,7.5c-.7,6.4-1,12.7-1,19.1h0Z" />
      <path class="cls-2"
         d="M222.7,481.3l-48.2,5.7-24.5-6.1c33.6-4.1,67.2-8.2,100.9-12.3l21.7,6.7c-16.6,2-33.2,3.9-49.8,5.9h-.1Z" />
      <path class="cls-2"
         d="M175.9,453.8l.5-4.8-24.3-7.4c-1.6,13.1-2.4,26.2-2.2,39.4l24.5,6.1c-.1-11.1.4-22.2,1.5-33.2h0Z" />
      <path class="cls-2"
         d="M176.5,449c-53.7-2.5-109.3.1-161.4-13.6l87.8,3.9c14.9.7,30,.7,44.9,2,9.9.9,19.3,4.7,28.8,7.6h-.1Z" />
      <path class="cls-2" d="M42.8,442.7c2.9-20,6.9-39.8,12-59.3l-27.1-9.3c-5.3,20.2-9.5,40.6-12.6,61.3l27.7,7.3h0Z" />
      <polygon class="cls-2" points="27.3 377.4 27.6 374.1 114.1 392.9 114 396.4 27.3 377.4 27.3 377.4" />
      <polygon class="cls-2" points="194.3 374.2 188 375.7 128.6 351.6 129.2 347.9 194.3 374.2 194.3 374.2" />
      <path class="cls-2" d="M153.8,437.4l-1.6,4.2-137.1-6.1,1.1-4c45.8,2,91.7,4,137.6,6h0Z" />
      <path class="cls-2"
         d="M43.9,435.1l-1.1,7.6,133.7,6.3c-1.5,12.6-2.2,25.3-2.1,38,32.7-3.9,65.4-7.8,98-11.6-.2-7.3,0-14.6.9-21.8l-73.3-3.5c2.8-22.7,8.5-44.9,17.1-66.1l-63.4-25.7c-5.8,14.2-10.7,28.7-14.6,43.5l-84.4-18.4c-4.5,17.1-8.1,34.3-10.9,51.7h.1Z" />
      <path class="cls-2" d="M246.1,449.1l-75.4-3.5,5.8-3,75.3,3.4c-1.9,1-3.8,2-5.6,3.1h-.1Z" />
      <path class="cls-2"
         d="M245.5,459.9c.1-3.6.3-7.2.6-10.8,1.9-1,3.8-2.1,5.6-3.1-.9,7.5-1.2,15.1-1,22.6-1.8-1.3-3.6-2.7-5.4-4v-4.8h.2Z" />
      <path class="cls-2"
         d="M197.5,470.6c16-2,31.9-3.9,47.9-5.9,1.8,1.3,3.6,2.7,5.4,4-33.6,4.1-67.2,8.2-100.9,12.3l1.2-4.7c15.5-1.9,30.9-3.8,46.4-5.7h0Z" />
      <path class="cls-2"
         d="M171.7,437.4c3-21.1,8.4-41.8,16.2-61.7l6.3-1.5c-9,21.9-15,45-17.9,68.4l-5.8,3,1.1-8.3h0Z" />
      <path class="cls-2" d="M152.8,446c-1.1,10.8,1,24.8-2.9,34.9-.1-12.7-2-32,3.9-43.6l-1,8.6h0Z" />
      <path class="cls-2" d="M116.6,387.1l-2.6,9.3c-.7-15,9.6-34.7,15.2-48.5-1.1,12.7-9.1,26.8-12.7,39.2h0Z" />
      <path class="cls-1"
         d="M18.1,419.4c2.5-14.1,5.4-28.1,9.2-42l86.7,18.9c4.2-15.2,8.8-30.2,14.6-44.8l59.3,24.1c-8.9,22.6-14.2,45.9-17.3,69.9l75.4,3.5c-.5,5.2-.7,10.4-.7,15.5-31.4,3.9-62.9,7.8-94.3,11.6,0-13,1.2-26,2.7-38.9l-137.6-6c.6-4,1.2-8,1.9-12h0v.2Z" />
      <path class="cls-2"
         d="M16.9,427.1c-.3,2.8-.9,5.6-1.8,8.3,3.1-20.7,7.2-41.1,12.6-61.3-1.2,17.4-7.9,35.6-10.8,53h0Z" />
   </g>
   <g>
      <path class="cls-2" d="M655.4,681.3l25.7,22.7-7.6,2.1-26.7-23.7,8.7-1.1h-.1Z" />
      <path class="cls-2"
         d="M743,605.3l3-7.3-4.8-2.6c-16.8,40.4-39.4,77.2-67.7,110.6l7.6-2.1c25.5-29.9,46-62.7,61.9-98.7h0Z" />
      <path class="cls-2" d="M746,598l32.6,13.2c-10.8-7.3-25.3-10.9-37.4-15.8l4.8,2.6h0Z" />
      <path class="cls-2"
         d="M796.9,554.3l1.9-8.4-2.5-4.9c-5.4,23.3-12.4,45.9-21.2,68.2l3.4,2c7.3-18.6,13.4-37.5,18.3-56.9h0Z" />
      <polygon class="cls-2" points="798.8 545.9 869.5 561.3 870.2 557 796.3 541 798.8 545.9 798.8 545.9" />
      <path class="cls-2"
         d="M648.2,867.6l-8.4,4.7-9.5,9.6c94.2-53,168.9-135.6,211.4-235.2,12.4-29,21.6-59,28.6-89.7-6.7,50.1-30.3,101.8-55.7,144.9s-58.8,83.2-97.2,116.5c-21.5,18.6-44.7,34.8-69.1,49.2h0Z" />
      <polygon class="cls-2" points="639.8 872.3 622.2 841.3 611.9 849.5 630.3 881.9 639.8 872.3 639.8 872.3" />
      <path class="cls-2" d="M674.3,806.8l7.1-5.6c-21.7,18.2-44.8,34.2-69.5,48.2,19.6-15.7,42.2-27.4,62.4-42.7h0Z" />
      <polygon class="cls-2" points="681.4 801.2 615.8 720.3 605.5 723.1 673.7 807.7 681.4 801.2 681.4 801.2" />
      <path class="cls-2"
         d="M615.8,720.3c14.2-12.1,27.3-25,39.7-39l-8.7,1.1c-12.8,14.6-26.5,28.1-41.3,40.7l10.3-2.8h0Z" />
      <polygon class="cls-2" points="646.6 689.1 646.8 682.4 673.5 706.1 673.5 713 646.6 689.1 646.6 689.1" />
      <polygon class="cls-2" points="775.2 609.2 777.8 615.3 743.6 601.4 741.2 595.5 775.2 609.2 775.2 609.2" />
      <polygon class="cls-2" points="611.9 849.5 617.5 852.3 631 876 630.3 881.9 611.9 849.5 611.9 849.5" />
      <path class="cls-2"
         d="M621,715.8l-5.3,4.5,65.6,80.9c-18.8,14.9-38.4,28.2-59.2,40.1l17.7,30.9c90.2-50.8,161.7-129.8,202.4-225.1,11.8-27.7,20.7-56.4,27.3-85.8l-70.7-15.4c-5.2,22.3-11.9,44-20.2,65.3l-32.6-13.2c-16.1,38.7-37.7,74-64.9,105.9l-25.7-22.7c-10.8,12.2-22.2,23.7-34.4,34.5h0Z" />
      <polygon class="cls-2" points="864.1 560.2 800 546.2 796.3 541 870.2 557 864.1 560.2 864.1 560.2" />
      <path class="cls-2"
         d="M782.9,602.5l-5,12.8-2.6-6.2c8.7-22.3,15.8-44.9,21.2-68.2l3.6,5.3c-4.3,19.2-10.3,37.9-17.1,56.3h-.1Z" />
      <path class="cls-2"
         d="M685.6,840c69.9-54.7,124.4-126.4,156.8-209.2,9-22.9,16.4-46.5,21.7-70.5l6.1-3.2c-24.2,106.7-81.1,203.9-165.5,274.1-23.2,19.3-48.2,36-74.4,50.8l.7-5.9c19.1-10.6,37.2-23,54.6-36h0Z" />
      <path class="cls-2"
         d="M687,696.9c-4.4,5.4-9,10.8-13.5,16.1v-7c28.3-33.3,50.9-70.2,67.7-110.6l2.3,6c-14.1,34.4-33.7,66.2-56.6,95.5h0Z" />
      <path class="cls-2"
         d="M621.7,849.9l-4.2,2.4-5.5-2.8c21.7-12.4,42.2-26.3,61.8-41.8l6.2,1.6c-18.7,14.8-37.8,28.3-58.2,40.6h0Z" />
      <path class="cls-2"
         d="M624,712.4c-4.3,4-8.6,7.9-13,11.7l-5.6-1c14.8-12.6,28.5-26.1,41.3-40.7l-.2,6.7c-7.1,8.1-14.8,15.8-22.6,23.3h0Z" />
      <path class="cls-1"
         d="M611,724.1c12.7-10.8,24.6-22.5,35.6-35l26.9,23.9c28.7-33.7,53.1-70.5,70-111.6l34.3,13.9c8.8-22.6,16.9-45.4,22.2-69.1l64.1,14c-22.5,103.3-81.3,198.7-162.1,266.5-22,18.5-45.8,35.3-71,49.2l-13.5-23.7c22.1-12.3,42.5-27.3,62.4-43l-68.9-85.2h0Z" />
      <polygon class="cls-2" points="605.5 723.1 611 724.1 679.9 809.3 673.7 807.7 605.5 723.1 605.5 723.1" />
   </g>
   <g>
      <path class="cls-2"
         d="M303.8,835.7l6.8,2.5-21.7,7.3c-18.3-7-35.9-15.2-52.9-24.8l23.2-6.2c14.5,8,29.2,15.1,44.6,21.2h0Z" />
      <polygon class="cls-2" points="310.5 838.2 347.1 690.6 327.1 692 288.8 845.5 310.5 838.2 310.5 838.2" />
      <path class="cls-2"
         d="M289.5,662.4l-3.4-2.5h-21.9c19,14.3,40.3,25.1,62.9,32.1l20-1.4c-20.6-6.3-40-15.8-57.6-28.2h0Z" />
      <path class="cls-2" d="M286.1,659.9l14.7-24.8-21.4-.8-15.2,25.8c7.3,0,14.6,0,21.9,0h0Z" />
      <path class="cls-2" d="M380.4,667l3.9.5c-38.1.9-73.9-10.7-104.9-33.2l21.4.8c23.6,16.9,50.9,27.8,79.7,31.9h-.1Z" />
      <path class="cls-2" d="M384.3,667.5l-24.1,249.4-20.3,10.7,25.6-259.6c6.2-.2,12.5-.3,18.7-.5h0Z" />
      <polygon class="cls-2" points="236.7 869.2 259.2 814.5 235.9 820.6 212.6 877.6 236.7 869.2 236.7 869.2" />
      <path class="cls-2"
         d="M243.7,873.3l-7-4.1-24.1,8.3c39.8,23.6,82.1,40.1,127.3,50l20.3-10.7c-41-8.7-79.8-23.1-116.5-43.5h0Z" />
      <polygon class="cls-2" points="329.3 689.9 289.4 850 288.8 845.5 327.1 692 329.3 689.9 329.3 689.9" />
      <polygon class="cls-2" points="235.9 820.6 235.8 825.2 214.7 876.7 212.6 877.6 235.9 820.6 235.9 820.6" />
      <polygon class="cls-2" points="279.4 634.3 278.8 638.4 266.5 659.1 264.2 660 279.4 634.3 279.4 634.3" />
      <polygon class="cls-2" points="361.2 670.7 365.5 667.9 339.9 927.5 336.1 924.3 361.2 670.7 361.2 670.7" />
      <path class="cls-2"
         d="M236.7,869.2c38.6,22.6,79.7,38.3,123.4,47.6l24.1-249.4c-30.2-3.6-58.9-14.7-83.6-32.4l-14.7,24.8c18.5,13.6,39.1,24,61.1,30.7l-36.6,147.6c-17.8-6.7-34.8-14.5-51.4-23.8l-22.4,54.8h0Z" />
      <path class="cls-2"
         d="M336.5,665.7c-20.6-5.7-40.2-14.9-57.7-27.3l.6-4.1c25.4,18.4,55.1,29.9,86.2,33.6l-4.3,2.8c-8.4-1.1-16.6-2.8-24.8-5h0Z" />
      <path class="cls-2" d="M288.8,845.5l.6,4.5c-18.5-7-36.5-14.9-53.6-24.8v-4.5c17.2,9.6,34.8,17.9,53.1,24.8h-.1Z" />
      <path class="cls-2"
         d="M266.5,659.1c19.1,13.9,40.3,23.6,62.7,30.8l-2.2,2.1c-22.6-7-43.9-17.8-62.9-31.9l2.4-.9h0Z" />
      <path class="cls-1"
         d="M235.8,825.2c17.1,9.9,35.2,17.7,53.6,24.8l39.9-160.1c-22.5-7.2-43.6-16.9-62.7-30.8l12.3-20.8c24.3,17.3,52.9,28.5,82.5,32.3l-25.1,253.6c-42.6-9-84.1-25-121.4-47.6l21.1-51.5h-.2Z" />
      <path class="cls-2"
         d="M214.7,876.7c37.3,22.6,78.8,38.6,121.4,47.6l3.8,3.2c-45.2-9.8-87.6-26.3-127.3-50l2.1-.9h0Z" />
   </g>
   <g>
      <path class="cls-2"
         d="M705.9,248.5l4.2,5.6-6-16.8c-11.4-15.5-23.8-29.9-37.5-43.4l7.4,18.2c11.5,11.4,22,23.5,31.9,36.3h0Z" />
      <polygon class="cls-2" points="710 254.2 737.5 235.7 732.6 218 704 237.4 710 254.2 710 254.2" />
      <path class="cls-2" d="M766.1,281.7l3.6,7c-6.1-26.4-21.4-48.8-37.1-70.6l4.9,17.7c10.6,14.7,20.1,30,28.6,46h0Z" />
      <polygon class="cls-2" points="769.7 288.7 832.1 259.5 831.1 242.2 766.1 273 769.7 288.7 769.7 288.7" />
      <path class="cls-2"
         d="M880.1,472.1l-.3,10c9.1-62.3-5.4-133-27.2-191.3-6.2-16.6-13.5-32.7-21.5-48.6l1,17.2c25.8,51.3,41.8,106.4,46.6,163.7,1.4,16.3,1.7,32.6,1.5,48.9h0Z" />
      <polygon class="cls-2" points="879.8 482.1 807.9 478.7 805.9 470.9 880.9 474.2 879.8 482.1 879.8 482.1" />
      <path class="cls-2"
         d="M795.1,355.7c-2-7-3.4-14-4.8-21.1,12.6,44.6,17.6,90,15.6,136.2l2.1,7.9c1.7-41.7-2.4-82.6-12.8-123h0Z" />
      <polygon class="cls-2" points="792.9 348 760 357.5 755.9 344.6 790.2 334.7 792.9 348 792.9 348" />
      <path class="cls-2"
         d="M742.2,309.5c-3.3-7-5.6-14.1-8-21.5,10.7,22.5,18.2,45.8,25.7,69.5-4.9-16.4-10.8-32.4-17.8-48h0Z" />
      <polygon class="cls-2" points="739.1 303 709 317.1 702.9 302.8 734.2 288 739.1 303 739.1 303" />
      <polygon class="cls-2" points="650.4 233.8 674 212.2 666.6 194 642.1 216.5 650.4 233.8 650.4 233.8" />
      <path class="cls-2"
         d="M654.8,238.3l-4.4-4.5-8.3-17.3c28.9,29.1,50.8,62.9,67,100.5-13.9-29-32.1-55.5-54.3-78.8h0Z" />
      <polygon class="cls-2" points="809.5 467.2 877.3 470.1 880.9 474.2 805.9 470.9 809.5 467.2 809.5 467.2" />
      <polygon class="cls-2" points="732.6 218 731.2 221.4 702.7 240.7 704 237.4 732.6 218 732.6 218" />
      <polygon class="cls-2" points="831.1 242.2 829.2 245.6 764.1 276.3 766.1 273 831.1 242.2 831.1 242.2" />
      <polygon class="cls-2" points="792.6 329.7 790.2 334.7 755.9 344.6 758.1 339.8 792.6 329.7 792.6 329.7" />
      <path class="cls-2"
         d="M650.4,233.8c24.2,24.3,43.8,52.4,58.6,83.3l30.1-14.1c8.3,17.7,15.2,35.8,20.8,54.5l32.9-9.5c12.1,42.8,16.9,86.3,15,130.7l71.9,3.4c2-58.6-5.7-116.9-25.7-172.2-6.2-17.3-13.8-34-22-50.5l-62.4,29.2c-9.4-18.5-20.1-36.1-32.2-53l-27.4,18.4c-11-14.9-23-28.9-36.1-42l-23.5,21.6h0v.2Z" />
      <path class="cls-2"
         d="M877.6,463.1c.7-59.5-8-118.6-29.2-174.3-5.6-14.8-12-29.2-19.1-43.3l1.9-3.3c28,55.5,45,115.5,49.2,177.6,1.2,18.1,1.3,36.2.7,54.4l-3.6-4.1.2-7h-.1Z" />
      <path class="cls-2"
         d="M795.8,341c10.7,41.2,15.8,83.6,13.7,126.2l-3.6,3.7c1.9-46.3-3-91.6-15.6-136.2l2.4-4.9,3.2,11.2h-.1Z" />
      <path class="cls-2"
         d="M740.3,292.4c6.9,15.4,13.1,31.1,17.8,47.4l-2.2,4.9c-5.8-19.5-13-38.3-21.7-56.6l1.5-5.2,4.6,9.6h0Z" />
      <polygon class="cls-2" points="735.7 282.8 734.2 288 702.9 302.8 704.2 297.7 735.7 282.8 735.7 282.8" />
      <path class="cls-2"
         d="M738.5,231.8c-2.4-3.5-4.8-7-7.3-10.4l1.3-3.3c12.6,17.5,23.7,35.7,33.5,54.9l-2,3.3c-7.8-15.3-16.2-30.1-25.6-44.5h0Z" />
      <path class="cls-2"
         d="M673.6,205.1c-2.6-2.7-5.1-5.4-7.8-8l.8-3.2c13.6,13.5,26,27.9,37.5,43.4l-1.4,3.3c-9.1-12.4-18.7-24.2-29.1-35.5h0Z" />
      <polygon class="cls-2" points="666.6 194 665.8 197.2 646 215.4 642.1 216.5 666.6 194 666.6 194" />
      <path class="cls-2" d="M646,215.4c23.8,23.7,43.7,52,58.2,82.3l-1.3,5.1c-15.6-32-35.7-61-60.8-86.2l4-1.2h-.1Z" />
      <path class="cls-1"
         d="M648.6,217.9l-2.5-2.6,19.7-18.2c13.6,13.4,25.6,28.2,36.9,43.5l28.6-19.3c12.7,17.3,23.2,35.9,32.9,55l65.1-30.7c27.1,53.2,42.8,111.9,47.2,171.4,1.3,17.7,1.5,35.4.9,53.1l-67.8-3c2.3-46.6-4.2-92.6-16.9-137.4l-34.5,10.1c-5.7-19.7-13.6-38.5-22.4-57l-31.5,14.9c-14.1-29.4-33.2-56.3-55.7-79.8h0Z" />
   </g>
   <g>
      <path class="cls-2"
         d="M420.4,545.6l1.6-.4-17.1-4.4c-21.9,5.7-45.5,2.3-64.4-10.2l19.2,4.7c17.8,11.8,40,15.3,60.7,10.4h0Z" />
      <path class="cls-2" d="M422.1,545.2l6,29.2-17-3.3-6.2-30.3,17.1,4.4h.1Z" />
      <path class="cls-2"
         d="M412.7,577.1l-2.2.2-17.6-3.1c6.1-.5,12.2-1.5,18.2-3l17,3.3c-5,1.3-10.2,2.2-15.3,2.7h-.1Z" />
      <path class="cls-2" d="M410.5,577.3l3.2,60.5-17.7-.7-3.1-62.8c5.9,1,11.8,2.1,17.6,3.1h0Z" />
      <path class="cls-2" d="M315.4,610.2l44.3-75-19.2-4.7-45.9,77.9,20.8,1.8h0Z" />
      <path class="cls-2"
         d="M318,612l-2.6-1.8-20.8-1.8c16.7,11.9,35.6,20.4,55.6,24.9,21,4.8,42.1,3.5,63.5,4.4-33.7,2.1-67.6-6.8-95.7-25.8h0Z" />
      <path class="cls-2"
         d="M315.4,610.2c28.5,20.1,63.5,29.7,98.3,27.5l-3.2-60.5c5.9-.5,11.8-1.5,17.6-2.9l-6-29.2c-21.1,5.5-44,2.1-62.3-10l-44.3,75h-.1Z" />
      <path class="cls-2" d="M400.7,545.2c1.4-1.5,2.8-2.9,4.2-4.4l6.2,30.3c-2-1.1-3.9-2.2-5.8-3.3l-4.6-22.7h0Z" />
      <polygon class="cls-2" points="391.2 633.5 390.7 633.1 387.6 570.3 392.9 574.2 396 637 391.2 633.5 391.2 633.5" />
      <path class="cls-2"
         d="M393.5,569.8c3.9-.4,7.9-1,11.7-1.9,1.9,1.1,3.9,2.2,5.8,3.3-6,1.5-12,2.5-18.2,3l-5.3-3.9,5.9-.6h.1Z" />
      <path class="cls-2"
         d="M340.1,535.2c.1-1.6.3-3.1.5-4.7,18.9,12.5,42.5,16,64.4,10.2-1.4,1.5-2.8,2.9-4.2,4.4-20.6,4.5-42.5,1.2-60.6-9.8v-.2h0Z" />
      <path class="cls-2" d="M340.3,532.9c0,.9-.2,1.7-.2,2.6l-42.2,71.6c-1.1.5-2.1,1-3.2,1.4l45.9-77.9-.2,2.3h0Z" />
      <path class="cls-1"
         d="M300.2,608.6l-2.4-1.6,42.2-71.6c18.1,10.9,40,14.2,60.6,9.8l4.6,22.7c-5.8,1.3-11.7,1.9-17.6,2.5l3.1,62.8c-31.8,1.3-63.7-7.2-90.5-24.5h0Z" />
      <path class="cls-2"
         d="M297.5,607.2h.3c27.2,18.3,60.1,27.3,92.9,25.9,1.8,1.3,3.6,2.6,5.4,3.9-36,2.1-72-7.6-101.4-28.6l2.9-1.3h0Z" />
   </g>
   <g>
      <path class="cls-2" d="M100.8,271.8l36,22.3c-21.3-10.8-41.2-22.7-61.6-35.3l25.6,13h0Z" />
      <path class="cls-2"
         d="M196.6,214.2l4.7-4.8-22.8-15.6c-25.8,26.6-47.9,55.8-66.5,87.7l24.8,12.5c16.7-28.9,36.8-55.7,59.8-79.9h0Z" />
      <polygon class="cls-2" points="201.3 209.4 289.6 318.4 268.9 306 178.5 193.9 201.3 209.4 201.3 209.4" />
      <path class="cls-2"
         d="M331.4,286.9l6.6-3.6-19.1-13.8c-18.3,10.1-34.7,22.2-49.9,36.5l20.7,12.4c12.9-12.1,26.6-22.4,41.8-31.5h-.1Z" />
      <polygon class="cls-2" points="338 283.3 347.1 307.5 328.2 294.5 318.9 269.5 338 283.3 338 283.3" />
      <path class="cls-2"
         d="M440,290l6.2.8-15.7-14.1c-35.3-5-70.6,1.5-102.3,17.7l18.9,13c28.9-14.5,60.7-20.8,92.9-17.5h0Z" />
      <polygon class="cls-2" points="446.2 290.8 439.3 318.7 423.3 305.7 430.5 276.7 446.2 290.8 446.2 290.8" />
      <path class="cls-2"
         d="M342.3,340.2l-4.5,3-19.3-11.7c30.3-21.6,67.8-31.5,104.8-25.8l16,13c-33.9-5.4-68.4,2.8-97,21.4h0Z" />
      <polygon class="cls-2" points="337.8 343.2 325.1 321 305.5 308.5 318.5 331.5 337.8 343.2 337.8 343.2" />
      <path class="cls-2"
         d="M291.8,351.8l-4.1,5.1-20.9-11c11.4-14.1,24-26.6,38.6-37.3l19.6,12.4c-12.3,9-23.4,19.3-33.3,30.8h0Z" />
      <path class="cls-2"
         d="M287.7,356.9c-10.4-9.2-20.8-18.5-31.3-27.6-7.9-6.9-17.5-11.2-26.7-16.3,10.3,9.1,20.6,18.3,30.9,27.4,8.1,7.2,17.4,11.4,27.1,16.5h0Z" />
      <path class="cls-2"
         d="M236.8,345.9l-4.4,7.4-22.4-10.9c6.1-10.2,12.7-19.9,19.8-29.4l21.8,12c-5.2,6.9-10,13.8-14.7,21h-.1Z" />
      <path class="cls-2" d="M232.4,353.3c-33.5-20.7-66.3-42.3-101.5-60,33.4,20.7,66.1,42.7,101.5,60h0Z" />
      <path class="cls-2"
         d="M135.8,344.3l-2.4,5.8-25.1-10.6c6.6-15.8,14.1-31.2,22.6-46.1l24.3,12.2c-7.2,12.6-13.6,25.5-19.4,38.8h0Z" />
      <path class="cls-2" d="M133.4,350.1c-28.6-11.6-57.2-23.1-85.6-35.1,28.6,11.6,57.2,23.1,85.6,35.1h0Z" />
      <path class="cls-2"
         d="M74.2,326.1c7.9-18.6,16.7-36.7,26.6-54.3l-25.6-13c-10.2,18.2-19.3,36.9-27.4,56.2l26.4,11.2h0Z" />
      <polygon class="cls-2" points="418.5 299.2 423.4 279.4 430.5 276.7 423.3 305.7 418.5 299.2 418.5 299.2" />
      <polygon class="cls-2" points="112 281.6 110.4 285.9 73.5 263 75.2 258.8 112 281.6 112 281.6" />
      <polygon class="cls-2" points="305.5 308.5 305.1 301 318.2 324.1 318.5 331.5 305.5 308.5 305.5 308.5" />
      <polygon class="cls-2" points="229.7 312.9 227.4 305.6 264.7 338.6 266.9 345.8 229.7 312.9 229.7 312.9" />
      <polygon class="cls-2" points="104.3 333.1 108.3 339.4 47.8 315 49.9 311.2 104.3 333.1 104.3 333.1" />
      <path class="cls-2"
         d="M47.8,315c8.1-19.3,17.2-37.9,27.5-56.2-3.4,9.7-9.6,18.7-14.1,27.9s-7.8,19.7-13.3,28.3h-.1Z" />
      <path class="cls-2"
         d="M77.2,319.1l-3,7,59.2,24c6.4-15.3,13.6-30.2,21.9-44.5l77.1,47.8c5.9-9.8,12.2-19.2,19.1-28.4l36.2,31.9c10.9-13.6,23.3-25.6,37.4-35.9l12.7,22.2c29.5-20.7,65.7-30.2,101.5-24.5l6.9-27.9c-34.2-4.9-68.3,1.1-99.1,16.7l-9.1-24.2c-17.7,9.7-33.6,21.3-48.4,35.1l-88.4-108.9c-25,25.4-46.6,53.8-64.5,84.6l-36-22.3c-8.6,15.4-16.5,31.1-23.6,47.3h0Z" />
      <path class="cls-2" d="M127.6,286.5c26.4,16.3,52.8,32.6,79.2,48.9l3.1,6.9-79-49-3.3-6.8h0Z" />
      <path class="cls-2"
         d="M370.2,281.8c-16.4,3.7-31.4,9.9-46.5,17.4l4.4-4.7c31.7-16.2,67-22.7,102.3-17.7l-7.1,2.6c-17.8-2.3-35.6-1-53.1,2.5h0Z" />
      <path class="cls-2"
         d="M318.5,331.5l-.2-7.4c29.4-19.8,64.9-29.2,100.2-24.9l4.8,6.5c-37-5.7-74.5,4.2-104.8,25.8h0Z" />
      <polygon class="cls-2" points="323.8 299.2 314.5 274.2 318.9 269.5 328.2 294.5 323.8 299.2 323.8 299.2" />
      <path class="cls-2"
         d="M280.7,297.6c-5,4.3-9.7,8.9-14.6,13.3l2.8-4.9c15.2-14.3,31.6-26.4,49.9-36.5l-4.3,4.8c-12.1,6.5-23.2,14.7-33.8,23.4h0Z" />
      <path class="cls-2"
         d="M266.2,336.7c11.8-13.5,24.6-25,38.9-35.7l.4,7.6c-14.6,10.8-27.2,23.3-38.6,37.3l-2.2-7.3,1.5-1.9h0Z" />
      <path class="cls-2" d="M266.1,310.9c-30.2-37.6-60.4-75.1-90.6-112.7l3-4.4,90.4,112.1-2.8,4.9h0Z" />
      <path class="cls-2"
         d="M209.2,331.5c5.8-8.9,11.9-17.4,18.2-25.8l2.4,7.3c-7.1,9.5-13.7,19.2-19.8,29.4l-3.1-6.9,2.4-4h0Z" />
      <path class="cls-2"
         d="M116,276.3l-5.6,9.6c5.2-17.1,20.1-34.4,30.7-48.5,11.5-15.4,24.1-29.8,37.4-43.5-8.1,14.1-22.9,26.1-33,39-10.7,13.9-20.4,28.4-29.5,43.4h0Z" />
      <path class="cls-2"
         d="M116.2,307.4c3.6-7,7.5-14,11.4-20.9l3.3,6.8c-8.5,14.9-16,30.3-22.6,46.1l-4.1-6.4c3.7-8.7,7.7-17.2,12-25.7h0Z" />
      <path class="cls-1"
         d="M49.9,311.2c6.9-16.5,14.8-32.7,23.6-48.3l36.9,23c18.4-31.6,39.6-61.3,65.1-87.7,30.2,37.5,60.4,75.1,90.6,112.7,15.1-13.8,30.3-26.9,48.4-36.7l9.2,25c31.2-15.5,64.5-24.3,99.6-19.8l-5,19.8c-35.3-4.4-70.8,5.2-100.2,24.9l-13.1-23.1c-14.8,11.2-28.8,23.1-40.4,37.6l-37.3-32.9c-7.2,9.7-14.5,19.4-20.6,29.8-26.4-16.3-52.8-32.6-79.2-48.9-8.5,15.2-16.6,30.5-23.4,46.6l-54.3-21.9h0Z" />
   </g>
   <g>
      <path class="cls-2" d="M477.5,654.3l11.1,29.4-15.1,1.1-11.4-30.7h15.5v.2Z" />
      <path class="cls-2"
         d="M457.5,693.7c-6.7,1.9-14,2-21,2.6,12.6-2.8,24.9-6.6,36.8-11.4l15.1-1.1c-10.1,4-20.5,7.4-31,9.9h.1Z" />
      <path class="cls-2" d="M453,694.7l19.5,94.2-15.9,5.5-20-98.1,16.4-1.6h0Z" />
      <path class="cls-2" d="M428.3,793.9l-6.4.2-17.8,5.7c23.6-.5,46.1-3,68.4-10.8-14.6,2.7-29.4,4.4-44.3,5h0Z" />
      <polygon class="cls-2" points="421.9 794 415.3 668.4 397.6 668.9 404.1 799.7 421.9 794 421.9 794" />
      <path class="cls-2" d="M415.3,668.4c21.4-1.2,42.4-6,62.2-14.1h-15.5c-20.5,8.3-42.3,13.4-64.4,14.6l17.7-.5h0Z" />
      <polygon class="cls-2" points="453.2 792.7 433.2 694.5 436.6 696.3 456.6 794.4 453.2 792.7 453.2 792.7" />
      <polygon class="cls-2" points="462 654.3 473.4 684.9 469.8 683.6 460.1 657.3 462 654.3 462 654.3" />
      <path class="cls-2"
         d="M419.3,668.2l-4,.2,6.6,125.6c17-.3,33.9-2,50.6-5.1l-19.5-94.2c12.1-2.7,24-6.3,35.5-11l-11.1-29.4c-18.6,7.6-38.2,12.3-58.2,13.8h.1Z" />
      <path class="cls-2"
         d="M444.6,691.8c8.5-2.3,17-5,25.2-8.3l3.6,1.4c-12,4.8-24.3,8.6-36.9,11.4l-3.3-1.8c3.8-.9,7.6-1.7,11.4-2.7h0Z" />
      <path class="cls-2"
         d="M429.4,796c8-.8,15.9-1.9,23.8-3.4l3.4,1.8c-17.3,3.2-34.8,5-52.5,5.3l1.2-2.2c8,0,16-.7,24-1.4h.1Z" />
      <polygon class="cls-2" points="405.4 797.5 404.1 799.7 397.6 668.9 399.1 671.1 405.4 797.5 405.4 797.5" />
      <path class="cls-1"
         d="M401.1,671c20.2-1.5,40.2-6.2,59-13.7l9.8,26.3c-11.9,4.7-24.1,8.1-36.6,11l19.9,98.1c-15.7,3-31.8,4.6-47.8,4.8l-6.3-126.3h2v-.2Z" />
      <path class="cls-2"
         d="M401.1,671h-2c0,0-1.5-2.1-1.5-2.1,22.1-1.2,43.9-6.3,64.4-14.7l-2,3c-18.8,7.6-38.8,12.2-59,13.7h.1Z" />
   </g>

</svg>